<svg id="Group_122" data-name="Group 122" xmlns="http://www.w3.org/2000/svg" viewBox="0 0 45.818 45.667">
  <defs>
    <style>
      .cls-1 {
        fill: #fff;
      }
    </style>
  </defs>
  <path id="Path_81" data-name="Path 81" class="cls-1" d="M18.16,15.114a2.985,2.985,0,0,1-2.117-.907l-1.966-1.966a.731.731,0,0,1,0-1.058.556.556,0,0,1,.454-.151,1.523,1.523,0,0,1,.454.151l1.966,1.966a1.462,1.462,0,0,0,2.117,0l5.141-5.141a2.923,2.923,0,0,1,4.234,0l4.839,4.839a.731.731,0,0,1,0,1.058.556.556,0,0,1-.454.151,1.523,1.523,0,0,1-.454-.151L27.535,9.066a1.462,1.462,0,0,0-2.117,0l-5.141,5.141a2.985,2.985,0,0,1-2.117.907" transform="translate(7.093 3.636)"/>
  <path id="Path_82" data-name="Path 82" class="cls-1" d="M9.785,6.161a3.024,3.024,0,1,0,3.024,3.024A3.033,3.033,0,0,0,9.785,6.161m0,7.409A4.385,4.385,0,1,1,14.17,9.185,4.206,4.206,0,0,1,9.785,13.57" transform="translate(2.766 2.458)"/>
  <path id="Path_83" data-name="Path 83" class="cls-1" d="M2.571,1.512A1.034,1.034,0,0,0,1.512,2.571v24.8H44.155V2.571A1.034,1.034,0,0,0,43.1,1.512Zm-1.058,31A1.034,1.034,0,0,0,2.571,33.57H43.247a1.034,1.034,0,0,0,1.058-1.058v-3.78H1.512Zm18.146,7.712h6.351V35.082H19.658Zm-1.663,1.512A2.614,2.614,0,0,0,15.424,44v.151H30.545V44a2.6,2.6,0,0,0-2.571-2.268Zm-3.478,3.932a.714.714,0,0,1-.756-.756v-.6a4.066,4.066,0,0,1,4.083-4.083h.3V35.082H2.571A2.65,2.65,0,0,1,0,32.511V2.571A2.65,2.65,0,0,1,2.571,0H43.247a2.65,2.65,0,0,1,2.571,2.571v29.94a2.65,2.65,0,0,1-2.571,2.571H27.521v5.141h.151a4.066,4.066,0,0,1,4.083,4.083v.6a.714.714,0,0,1-.756.756Z"/>
  <path id="Path_84" data-name="Path 84" class="cls-1" d="M16.507,21.612h-.151a.756.756,0,1,1,0-1.512h0a.714.714,0,0,1,.756.756c.151.454-.151.756-.6.756Z" transform="translate(7.989 10.294)"/>
  <path id="Path_85" data-name="Path 85" class="cls-1" d="M10.912,3.861a6.227,6.227,0,0,0-6.2,6.2,5.922,5.922,0,0,0,1.361,3.932h0l4.839,6.2,4.839-6.2h0a6.213,6.213,0,0,0,1.361-3.932,6.131,6.131,0,0,0-6.2-6.2M9.249,20.494,5.015,14.9A6.761,6.761,0,0,1,3.2,10.212a7.712,7.712,0,0,1,15.424,0,7.813,7.813,0,0,1-1.663,4.839h0l-4.234,5.444-1.663,1.663Z" transform="translate(1.639 1.28)"/>
</svg>
