<svg xmlns="http://www.w3.org/2000/svg" viewBox="0 0 65.964 62.846">
  <defs>
    <style>
      .cls-1 {
        fill: #fff;
      }
    </style>
  </defs>
  <path id="Path_86" data-name="Path 86" class="cls-1" d="M31.979,1.922a5.176,5.176,0,0,0-4.613,2.691,5.146,5.146,0,0,0-.192,5h0a5.451,5.451,0,0,0,1.73,1.922h.384a.188.188,0,0,1,.192.192,6.256,6.256,0,0,0,2.691.769A5.176,5.176,0,0,0,36.784,9.8a4.96,4.96,0,0,0,.577-4.036,5.27,5.27,0,0,0-2.5-3.267,7.712,7.712,0,0,0-2.883-.577M13.913,17.489h0c0,.192.192.384.192.577a6.542,6.542,0,0,1,0,3.844h0l5.189,2.306L27.366,12.3h0a5.1,5.1,0,0,1-.961-1.153h0ZM7.186,14.8a5.176,5.176,0,0,0-4.613,2.691,5.361,5.361,0,0,0,1.922,7.3,6.256,6.256,0,0,0,2.691.769,4.721,4.721,0,0,0,2.883-.961h0a4.537,4.537,0,0,0,1.538-1.73,4.96,4.96,0,0,0,.577-4.036,1.468,1.468,0,0,0-.384-.961h0a3.739,3.739,0,0,0-1.922-2.5A6.139,6.139,0,0,0,7.186,14.8m6.15,9.033a8.359,8.359,0,0,1-1.153,1.345h0l3.267,5,2.691-4.036-4.8-2.306ZM35.63,25.177A6.4,6.4,0,0,1,38.9,29.6c0,.192.192.577.192.769H51.582a5.664,5.664,0,0,1,.961-2.5c0-.192.192-.192.192-.384h0l-16.144-14.8h0a6.887,6.887,0,0,1-4.613,1.73,5.64,5.64,0,0,1-3.075-.769h0l-7.88,11.724,5,2.306h0a7.165,7.165,0,0,1,6.15-3.267,5.712,5.712,0,0,1,3.459.769ZM16.6,31.9l3.267,4.8,5.381-2.691h0a6.916,6.916,0,0,1-.192-4.42h0l-5.189-2.691Zm15.375-5.766a5.176,5.176,0,0,0-4.613,2.691,5.361,5.361,0,0,0,1.922,7.3,6.256,6.256,0,0,0,2.691.769,5.175,5.175,0,0,0,4.613-2.691,6.256,6.256,0,0,0,.769-2.691h0a3.271,3.271,0,0,0-.192-1.345,5.27,5.27,0,0,0-2.5-3.267,4.413,4.413,0,0,0-2.691-.769m26.714,0a4.839,4.839,0,0,0-3.844,1.73h0a4.2,4.2,0,0,0-.577.961,5.222,5.222,0,0,0,.577,6.15h0a3.447,3.447,0,0,0,1.345.961,6.256,6.256,0,0,0,2.691.769A5.176,5.176,0,0,0,63.5,34.018a4.96,4.96,0,0,0,.577-4.036,5.27,5.27,0,0,0-2.5-3.267,7.712,7.712,0,0,0-2.883-.577m-46.7,12.684h0l1.153,1.153h0l5.189-2.691-2.691-3.844Zm-4.8,0a5.176,5.176,0,0,0-4.613,2.691,5.361,5.361,0,0,0,1.922,7.3,6.256,6.256,0,0,0,2.691.769A5.176,5.176,0,0,0,11.8,46.894a4.96,4.96,0,0,0,.577-4.036c-.192-.384-.192-.769-.384-.961h0a4.508,4.508,0,0,0-2.114-2.114,4.592,4.592,0,0,0-2.691-.961M35.63,49.393a3.374,3.374,0,0,1,.961.769h0L52.735,35.555h0a8.491,8.491,0,0,1-1.153-3.075H39.09a5.664,5.664,0,0,1-.961,2.5,7.111,7.111,0,0,1-6.15,3.652,7.949,7.949,0,0,1-3.652-.961,6.109,6.109,0,0,1-2.306-2.114h0l-5.189,2.691,7.688,11.147h0a6.317,6.317,0,0,1,3.267-.769,6.321,6.321,0,0,1,3.844.769ZM13.913,41.705h0c0,.192.192.384.192.577a6.542,6.542,0,0,1,0,3.844h0l11.916,5.381h0a8.359,8.359,0,0,1,1.153-1.345h0l-7.88-11.147Zm18.066,8.649a5.175,5.175,0,0,0-4.613,2.691c0,.192-.192.192-.192.384h0a5.271,5.271,0,0,0-.192,3.844,6.25,6.25,0,0,0,2.306,3.075,6.256,6.256,0,0,0,2.691.769,5.175,5.175,0,0,0,4.613-2.691,4.96,4.96,0,0,0,.577-4.036,4.581,4.581,0,0,0-1.153-2.114h0a3.447,3.447,0,0,0-1.345-.961,3.6,3.6,0,0,0-2.691-.961m0,12.492a7.949,7.949,0,0,1-3.652-.961,7.135,7.135,0,0,1-3.267-8.264h0L13.336,48.047h0a7.078,7.078,0,0,1-5.958,3.267,7.949,7.949,0,0,1-3.652-.961,7.2,7.2,0,0,1-2.691-9.8A7.537,7.537,0,0,1,7.186,36.9a5.64,5.64,0,0,1,3.075.769h0L14.3,31.711l-3.844-5.573h0a6.317,6.317,0,0,1-3.267.769,7.949,7.949,0,0,1-3.652-.961,7.2,7.2,0,0,1-2.691-9.8,7.537,7.537,0,0,1,6.15-3.652,7.193,7.193,0,0,1,3.459.961h0a6.109,6.109,0,0,1,2.306,2.114h0L25.252,9.609h0a6.545,6.545,0,0,1,.577-5.958A7.111,7.111,0,0,1,31.979,0,8.621,8.621,0,0,1,35.63.961h0A6.4,6.4,0,0,1,38.9,5.381a6.541,6.541,0,0,1-.769,5.381.671.671,0,0,1-.192.384h0L54.081,25.753h0a6.887,6.887,0,0,1,4.613-1.73,8.621,8.621,0,0,1,3.652.961h0a6.4,6.4,0,0,1,3.267,4.42,6.541,6.541,0,0,1-.769,5.381,7.111,7.111,0,0,1-6.15,3.652,7.949,7.949,0,0,1-3.652-.961,1.919,1.919,0,0,1-.961-.769h0L37.937,51.315h0a7.1,7.1,0,0,1,.961,2.114,6.541,6.541,0,0,1-.769,5.381,6.591,6.591,0,0,1-6.15,4.036" transform="translate(0.082)"/>
</svg>
