<svg xmlns="http://www.w3.org/2000/svg" viewBox="0 0 55.948 55.822">
  <defs>
    <style>
      .cls-1 {
        fill: #fff;
      }
    </style>
  </defs>
  <g id="Group_124" data-name="Group 124" transform="translate(0.003 0.003)">
    <path id="Path_150" data-name="Path 150" class="cls-1" d="M44.31,47,41.625,44.31h0a8.861,8.861,0,0,0,1.343-1.343,2.648,2.648,0,0,0,.575-.767l2.685,2.685a2.648,2.648,0,0,0-.575.767A8.861,8.861,0,0,1,44.31,47M22.828,53.517,20.91,51.6h4.028l2.3,2.3a16.453,16.453,0,0,1-4.411-.384m-7.1-2.685c.192,0,.384.192.575.192.575.192.959.192,1.534.384l1.343,1.343a13.4,13.4,0,0,1-4.028-2.11.84.84,0,0,0,.575.192m13.81,2.877-2.3-2.3a.7.7,0,0,0,.575-.192c.575-.192.959-.192,1.534-.384.192,0,.384,0,.384-.192.384-.192.767-.192,1.151-.384.192,0,.384-.192.575-.192l2.493,2.493a11.561,11.561,0,0,1-4.411,1.151m6.521-1.534-2.493-2.493c.384-.192.959-.384,1.343-.575.192,0,.192-.192.384-.192l1.151-.575,2.685,2.685a26.429,26.429,0,0,0-3.069,1.151m4.411-2.3-2.685-2.685c.192,0,.192-.192.384-.192h.192c.575-.384.959-.767,1.534-1.151.192,0,.192-.192.384-.192h0l2.685,2.685a10.875,10.875,0,0,0-2.493,1.534m-30.305-39.7A26.694,26.694,0,0,1,29.157,1.921,20.106,20.106,0,0,1,43.926,7.867c.575.575.959,1.151,1.534,1.726l.192.384h0L46.8,11.7h0a4.529,4.529,0,0,1,1.151,1.726h0c.192.575.575,1.151.767,1.726v.192l.575,1.726c0,.192,0,.192.192.384.192.575.192.959.384,1.534v.575c0,.575.192.959.192,1.534v2.685a4.223,4.223,0,0,1-.192,1.534V25.9a5.6,5.6,0,0,1-.384,1.726v.384c-.192.575-.192,1.151-.384,1.726v.192c-.192.575-.384,1.151-.575,1.918a.188.188,0,0,1-.192.192c-.192.575-.575,1.151-.767,1.726a.188.188,0,0,1-.192.192c-.384.575-.575,1.151-.959,1.726l-.192.192L45.077,37.6l-.192.192a10.541,10.541,0,0,1-1.343,1.726.188.188,0,0,1-.192.192c-.575.575-.959,1.151-1.534,1.726s-1.151.959-1.726,1.534a.188.188,0,0,0-.192.192c-.575.384-1.151.959-1.726,1.343l-.192.192-1.726,1.151a.188.188,0,0,0-.192.192A7.774,7.774,0,0,1,34.336,47a.188.188,0,0,0-.192.192,5.744,5.744,0,0,1-1.918.767h-.192a8.016,8.016,0,0,0-1.918.767h-.192a5.6,5.6,0,0,1-1.726.384h-.384c-.575.192-1.151.192-1.726.384h-.575a2.579,2.579,0,0,1-1.534.384H21.294a4.223,4.223,0,0,1-1.534-.192h-.575a3.613,3.613,0,0,1-1.534-.384h-.384l-1.726-.575h-.192a5.744,5.744,0,0,1-1.918-.767h0A7.774,7.774,0,0,1,11.7,47h0L9.977,45.844h0l-.384-.192a12.41,12.41,0,0,1-1.726-1.534C-.956,35.3.2,20.143,10.169,10.169m40.471,4.8A22.1,22.1,0,0,1,53.325,21.1L51.79,19.567v-.384a1.153,1.153,0,0,0-.192-.767c0-.384-.192-.959-.192-1.343,0-.192-.192-.384-.192-.575a1.465,1.465,0,0,0-.384-.959c-.192-.384-.192-.384-.192-.575M51.6,26.089v-.575a3.264,3.264,0,0,1,.192-1.343V22.253l2.11,2.11a14.169,14.169,0,0,1,0,4.028ZM47.571,43.543l-2.685-2.685c.192-.384.575-.575.767-.959h0a8.12,8.12,0,0,0,.959-1.343L49.3,41.241l-1.726,2.3m2.877-3.836-2.685-2.685c0-.192.192-.192.192-.384v-.192a5.743,5.743,0,0,0,.767-1.534c0-.192.192-.192.192-.384s0-.192.192-.384L51.6,36.638a14.537,14.537,0,0,1-1.151,3.069m2.11-4.6-2.685-2.685c.192-.384.192-.767.384-.959a.67.67,0,0,1,.192-.384c.192-.384.192-.767.384-1.151,0-.192,0-.384.192-.384,0-.384.192-.575.192-.959l2.493,2.493Q53.133,32.8,52.558,35.1m3.069-4.6a24.775,24.775,0,0,0,.192-6.521v-.192a22.055,22.055,0,0,0-6.33-13.234,21,21,0,0,0-2.11-1.918,10.053,10.053,0,0,0-1.918-2.11c-9.59-9.59-25.894-8.439-36.635,2.3s-11.892,27.044-2.3,36.635a19.1,19.1,0,0,0,2.11,1.918,10.053,10.053,0,0,0,1.918,2.11,20.9,20.9,0,0,0,11.508,5.946h.192a31.364,31.364,0,0,0,4.22.384,12.663,12.663,0,0,0,2.685-.192h.192a28.279,28.279,0,0,0,6.713-1.534h.192a31.2,31.2,0,0,0,4.411-2.11.188.188,0,0,0,.192-.192,26.192,26.192,0,0,0,4.028-2.877h0A19.1,19.1,0,0,0,47,47a31.529,31.529,0,0,0,6.713-9.974V36.83a22.14,22.14,0,0,0,1.918-6.33h0" transform="translate(0 0)"/>
    <path id="Path_151" data-name="Path 151" class="cls-1" d="M4.62,12.288c.192,0,.192.192.384.192.384,0,.767-.192.767-.575a17.287,17.287,0,0,0,.959-1.726c.384-.384.192-.959-.384-1.343A.922.922,0,0,0,5.2,9.22a7.775,7.775,0,0,0-.959,1.726,1.271,1.271,0,0,0,.384,1.343" transform="translate(3.823 8.046)"/>
    <path id="Path_152" data-name="Path 152" class="cls-1" d="M7.4,8.915a1.153,1.153,0,0,0,.767-.192A8.342,8.342,0,0,1,9.323,7.38a.9.9,0,0,0,.192-1.343.927.927,0,0,0-1.343,0A4.481,4.481,0,0,0,6.83,7.38l.575.767L6.638,7.38a.927.927,0,0,0,0,1.343,1.45,1.45,0,0,0,.767.192" transform="translate(5.833 5.282)"/>
    <path id="Path_153" data-name="Path 153" class="cls-1" d="M5.192,19.992A.948.948,0,0,0,5,21.334a4.481,4.481,0,0,0,1.343,1.343h0a.7.7,0,0,0,.575.192,1.454,1.454,0,0,0,.767-.384.927.927,0,0,0,0-1.343A8.342,8.342,0,0,1,6.535,19.8a3.745,3.745,0,0,0-1.343.192" transform="translate(4.402 18.18)"/>
    <path id="Path_154" data-name="Path 154" class="cls-1" d="M23.116,13.491c0,.575-.192,1.151-.192,1.726-.192.575.192.959.767,1.151h.192a1.274,1.274,0,0,0,.959-.767,6.525,6.525,0,0,0,.192-1.918.878.878,0,0,0-.767-.959c-.767-.192-1.151.192-1.151.767" transform="translate(21.003 11.639)"/>
    <path id="Path_155" data-name="Path 155" class="cls-1" d="M7.936,22.692a1.271,1.271,0,0,0,.384,1.343,19.9,19.9,0,0,0,1.918.767h.384a1.055,1.055,0,0,0,.959-.575A.931.931,0,0,0,11,23.075L9.279,22.5a.926.926,0,0,0-1.343.192" transform="translate(7.22 20.467)"/>
    <path id="Path_156" data-name="Path 156" class="cls-1" d="M23.018,11.711c0,.384.575.767.959.767h.192a1.052,1.052,0,0,0,.767-1.151c-.192-.575-.384-1.343-.575-1.918a.91.91,0,1,0-1.726.575,5.6,5.6,0,0,1,.384,1.726" transform="translate(20.717 8.048)"/>
    <path id="Path_157" data-name="Path 157" class="cls-1" d="M5.5,18.793a5.6,5.6,0,0,1-.384-1.726A1.052,1.052,0,0,0,3.967,16.3,1.052,1.052,0,0,0,3.2,17.451c.192.575.384,1.343.575,1.918a1.055,1.055,0,0,0,.959.575h.384A.922.922,0,0,0,5.5,18.793" transform="translate(2.941 14.967)"/>
    <path id="Path_158" data-name="Path 158" class="cls-1" d="M3.959,16.168a.878.878,0,0,0,.959-.767c0-.575.192-1.151.192-1.726.192-.575-.192-.959-.767-1.151s-.959.192-1.151.767A6.525,6.525,0,0,0,3,15.209c0,.384.384.767.959.959h0" transform="translate(2.757 11.455)"/>
    <path id="Path_159" data-name="Path 159" class="cls-1" d="M12.659,24.942h0a6.525,6.525,0,0,0,1.918-.192c.575,0,.959-.575.767-.959,0-.575-.575-.959-.959-.767H12.659a.959.959,0,1,0,0,1.918" transform="translate(10.744 21.094)"/>
    <path id="Path_160" data-name="Path 160" class="cls-1" d="M16.585,24.529h.384c.575-.192,1.151-.575,1.726-.767a.987.987,0,0,0-.959-1.726c-.575.192-1.151.575-1.726.767a.855.855,0,0,0-.575,1.151c.575.192.767.575,1.151.575" transform="translate(14.107 20.164)"/>
    <path id="Path_161" data-name="Path 161" class="cls-1" d="M14.191,5.01h0a5.913,5.913,0,0,0,1.918-.192.906.906,0,0,0,.959-.959.906.906,0,0,0-.959-.959h0a6.525,6.525,0,0,0-1.918.192c-.575,0-.959.575-.767.959-.192.767.384.959.767.959" transform="translate(12.281 2.666)"/>
    <path id="Path_162" data-name="Path 162" class="cls-1" d="M10.592,6.42c.192,0,.192,0,.384-.192.575-.192,1.151-.575,1.726-.767a.855.855,0,0,0,.575-1.151.855.855,0,0,0-1.151-.575c-.575.192-1.151.575-1.726.767a1.207,1.207,0,0,0-.767,1.534,1.465,1.465,0,0,0,.959.384" transform="translate(8.783 3.366)"/>
    <path id="Path_163" data-name="Path 163" class="cls-1" d="M21.989,8.331a1,1,0,0,0,.767.384.7.7,0,0,0,.575-.192.948.948,0,0,0,.192-1.343A9.606,9.606,0,0,0,22.18,5.646l-.767.767.767-.575A.949.949,0,1,0,20.838,7.18c.384.192.767.767,1.151,1.151" transform="translate(18.869 5.098)"/>
    <path id="Path_164" data-name="Path 164" class="cls-1" d="M22.322,16.92a11.389,11.389,0,0,1-.767,1.534,1.011,1.011,0,0,0,.384,1.343c.192,0,.384.192.575.192a1,1,0,0,0,.767-.384c.384-.575.575-1.151.959-1.726a1.271,1.271,0,0,0-.384-1.343,1.492,1.492,0,0,0-1.534.384" transform="translate(19.686 15.115)"/>
    <path id="Path_165" data-name="Path 165" class="cls-1" d="M17.76,5.434l1.726.575h.384a1.055,1.055,0,0,0,.959-.575,1.271,1.271,0,0,0-.384-1.343,19.9,19.9,0,0,0-1.918-.767.931.931,0,0,0-1.151.575,1.089,1.089,0,0,0,.384,1.534" transform="translate(15.809 3.008)"/>
    <path id="Path_166" data-name="Path 166" class="cls-1" d="M19.106,22.431a1,1,0,0,0,.767.384.7.7,0,0,0,.575-.192,4.481,4.481,0,0,0,1.343-1.343h0a.949.949,0,0,0-1.343-1.343c-.384.384-.959.767-1.343,1.151-.192.384-.384.959,0,1.343" transform="translate(17.34 18.043)"/>
  </g>
</svg>
