<svg xmlns="http://www.w3.org/2000/svg" viewBox="4196.427 5453.427 41.573 41.573">
  <defs>
    <style>
      .cls-1 {
        fill: #021033;
        fill-rule: evenodd;
      }
    </style>
  </defs>
  <path id="iconmonstr-globe-8" class="cls-1" d="M20.786,0A20.786,20.786,0,1,1,0,20.786,20.8,20.8,0,0,1,20.786,0m4.429,27.715h-8.86a26.744,26.744,0,0,0,4.431,9.95,26.777,26.777,0,0,0,4.429-9.95m-12.4,0H4.907a17.272,17.272,0,0,0,11.7,9.9,30.41,30.41,0,0,1-3.79-9.9m23.847,0H28.754a30.517,30.517,0,0,1-3.768,9.863,17.481,17.481,0,0,0,11.678-9.863M12.406,17.322h-8.6a17.474,17.474,0,0,0,0,6.929h8.514a34.693,34.693,0,0,1,.081-6.929m13.27,0H15.895a31.208,31.208,0,0,0-.092,6.929h9.965a31.209,31.209,0,0,0-.092-6.929m12.086,0h-8.6a34.823,34.823,0,0,1,.083,6.929h8.514a17.5,17.5,0,0,0,0-6.929M16.705,3.934a17.269,17.269,0,0,0-11.8,9.924h8.06a35.379,35.379,0,0,1,3.738-9.924m4.079-.083a32.25,32.25,0,0,0-4.266,10.007h8.535A32.341,32.341,0,0,0,20.785,3.851m4.1.12A35.423,35.423,0,0,1,28.6,13.858h8.062A17.479,17.479,0,0,0,24.886,3.97" transform="translate(4196.427 5453.427)"/>
</svg>
