<svg id="WHITE_Geocoding" data-name="WHITE Geocoding" xmlns="http://www.w3.org/2000/svg" viewBox="0 0 86.551 86.549">
  <defs>
    <style>
      .cls-1 {
        fill: #fff;
      }
    </style>
  </defs>
  <path id="Path_62" data-name="Path 62" class="cls-1" d="M36.1,20.277a11.938,11.938,0,0,0-3.158-8.088l-.692-.562-.519-.476a4.325,4.325,0,0,0-.779-.562h0A12.068,12.068,0,0,0,26.63,8.816a11.332,11.332,0,0,0-2.552-.606H22.824a11.808,11.808,0,0,0-2.076.433l-.995.389-.995.476-.908.519a4.758,4.758,0,0,0-.908.606,1.211,1.211,0,0,0-.433.389l-.779.606-.735.822L14.3,13.4a9.257,9.257,0,0,0-.562.822A14.144,14.144,0,0,0,12.27,18.85V21.1A11.592,11.592,0,0,0,14.3,26.592a5.1,5.1,0,0,0,.562.779v.216a7.179,7.179,0,0,0,1.168,1.125,8.65,8.65,0,0,0,2.725,1.817,2.725,2.725,0,0,0,.865.433l1.514.476,2.336,25.649c0,.649.346.908.649.908s.606-.26.692-.908l2.292-25.692A11.808,11.808,0,0,0,36.1,20.277Z" transform="translate(29.296 15.795)"/>
  <rect id="Rectangle_168" data-name="Rectangle 168" class="cls-1" width="9.862" height="9.862" transform="translate(59.386 0)"/>
  <rect id="Rectangle_169" data-name="Rectangle 169" class="cls-1" width="9.862" height="9.862" transform="translate(0 49.481)"/>
  <rect id="Rectangle_170" data-name="Rectangle 170" class="cls-1" width="9.862" height="9.862" transform="translate(19.81 39.576)"/>
  <rect id="Rectangle_171" data-name="Rectangle 171" class="cls-1" width="9.862" height="9.862" transform="translate(19.81 19.81)"/>
  <path id="Path_63" data-name="Path 63" class="cls-1" d="M12.522,17.145V7.24H2.66V26.963H22.426V17.145Z" transform="translate(-2.66 12.57)"/>
  <rect id="Rectangle_172" data-name="Rectangle 172" class="cls-1" width="9.862" height="9.862" transform="translate(49.481 9.905)"/>
  <path id="Path_64" data-name="Path 64" class="cls-1" d="M19.382,2.66H9.52V22.426h9.862v-9.9h9.9V2.66Z" transform="translate(20.151 -2.66)"/>
  <path id="Path_65" data-name="Path 65" class="cls-1" d="M12.176,2.66h0A9.818,9.818,0,0,0,2.66,12.478H12.781v9.948h9.645V2.66Z" transform="translate(-2.66 -2.66)"/>
  <path id="Path_66" data-name="Path 66" class="cls-1" d="M32.253,11.627l-.519-.476a4.325,4.325,0,0,0-.779-.562h0A12.068,12.068,0,0,0,26.63,8.816a11.332,11.332,0,0,0-2.552-.606H22.824a11.808,11.808,0,0,0-2.076.433l-.692.26v4.931H14.043a1.774,1.774,0,0,1-.3.476,14.144,14.144,0,0,0-1.471,4.628v2.249A11.592,11.592,0,0,0,14.3,26.679a5.1,5.1,0,0,0,.562.779v.216A7.18,7.18,0,0,0,16.033,28.8a8.651,8.651,0,0,0,2.725,1.817,2.725,2.725,0,0,0,.865.433l1.514.476,2.336,25.649c0,.649.346.908.649.908s.606-.26.692-.908L27.106,31.48a11.808,11.808,0,0,0,8.651-11.289A11.938,11.938,0,0,0,32.6,12.1Z" transform="translate(29.296 15.795)"/>
  <path id="Path_67" data-name="Path 67" class="cls-1" d="M12.286,14.16l.908-1.168a12.284,12.284,0,0,1,1.038-1.125L15.184,11a5.925,5.925,0,0,1,.865-.692l1.211-.822.562-.3.389-.216,1.211-.606h.346l1.514-.606H21.8V7.24H11.81v7.612Z" transform="translate(27.766 12.57)"/>
  <path id="Path_68" data-name="Path 68" class="cls-1" d="M83.841,3.78,64.031,23.59l.346.346a15.052,15.052,0,0,1,2.206,3.2l14.36-14.36v52.9L62.777,47.552l-3.028,3.071L80.943,71.816v3.33a2.163,2.163,0,0,1,0,.779v.433A5.58,5.58,0,0,1,75.32,80.9H41.713L27.266,66.453l17.3-17.3a14.014,14.014,0,0,1-3.2-2.206L41.02,46.6,3.78,83.841a10.38,10.38,0,0,0,5.493,1.644H75.147a10.121,10.121,0,0,0,10.078-8.348,6.358,6.358,0,0,0,.26-1.99V9.273A9.9,9.9,0,0,0,83.841,3.78ZM24.2,69.611,35.614,80.986H12.777Z" transform="translate(1.064 1.064)"/>
</svg>
