<svg id="WHITE_MapDisplay" data-name="WHITE MapDisplay" xmlns="http://www.w3.org/2000/svg" viewBox="0 0 86.462 86.423">
  <defs>
    <style>
      .cls-1 {
        fill: #fff;
      }
    </style>
  </defs>
  <path id="Path_69" data-name="Path 69" class="cls-1" d="M84.539,3.89h0V3.63L73.337,14.7h0L63.216,25.04A15.225,15.225,0,0,1,66.2,28.068L81.382,12.756V67.384l-17.3-17.3-3.417,2.811,20.8,20.761v4.066a4.325,4.325,0,0,1-4.109,4.066h-34.6L27.921,66.649l16-16a17,17,0,0,1-3.071-3.028L25.975,62.5,21.65,66.822,11.01,77.462l-3.676,3.72L3.7,84.772A7.742,7.742,0,0,0,8.025,85.94h69.2a8.391,8.391,0,0,0,8.434-8.391V8.042A8.131,8.131,0,0,0,84.539,3.89ZM13,81.744,24.851,69.85,36.745,81.744Z" transform="translate(0.798 0.479)"/>
  <path id="Path_70" data-name="Path 70" class="cls-1" d="M2.71,13V46.824a8.651,8.651,0,0,0,1.254,4.325L22.26,32.81Z" transform="translate(-2.494 31.637)"/>
  <path id="Path_71" data-name="Path 71" class="cls-1" d="M11.094,2.783A8.651,8.651,0,0,0,2.66,11.434v10.51L21.951,2.74Z" transform="translate(-2.66 -2.48)"/>
  <path id="Path_72" data-name="Path 72" class="cls-1" d="M41.5,24.393a16.047,16.047,0,0,1,6.272,1.3L66.07,7.135l3.287-3.287A8.261,8.261,0,0,0,65.032,2.68L12.783,2.9,7.29,8.39,28.916,30.016A16.436,16.436,0,0,1,41.5,24.393Z" transform="translate(12.736 -2.68)"/>
  <path id="Path_73" data-name="Path 73" class="cls-1" d="M30.762,10.86h0a11.635,11.635,0,0,0-6.531-1.99H23.02a10.641,10.641,0,0,0-2.033.433l-1.211.13-.995.433-.908.519-.865.606a1.687,1.687,0,0,0-.433.346l-.779.692c-.26.26-.519.606-.735.865l-.519.865-.519.822A11.721,11.721,0,0,0,12.553,18.9a11.331,11.331,0,0,0,0,1.211,7.31,7.31,0,0,0,0,.995,10.64,10.64,0,0,0,1.99,5.623,4.714,4.714,0,0,0,.562.735h0a7.266,7.266,0,0,0,1.125,1.168,9.343,9.343,0,0,0,2.682,1.773l.865.389,1.514.476L23.539,57.01c0,.606.346.865.649.865s.606-.26.649-.865l2.292-25.3a11.548,11.548,0,0,0,5.58-19.031l-.865-.822-.476-.433A4.326,4.326,0,0,0,30.762,10.86Z" transform="translate(30.181 17.904)"/>
  <path id="Path_74" data-name="Path 74" class="cls-1" d="M41.737,40.6a16.393,16.393,0,0,1-1.3-6.358,16.652,16.652,0,0,1,1.514-7.05L19.549,4.7,2.68,21.612V34.2L25.69,56.992Z" transform="translate(-2.593 4.038)"/>
</svg>
