<svg id="WHITE_Planning" data-name="WHITE Planning" xmlns="http://www.w3.org/2000/svg" viewBox="0 0 96.746 96.4">
  <defs>
    <style>
      .cls-1 {
        fill: #fff;
      }
    </style>
  </defs>
  <path id="Path_75" data-name="Path 75" class="cls-1" d="M42.407,24.374A12.12,12.12,0,0,0,39.094,16l-.741-.7-.48-.436a5.8,5.8,0,0,0-.828-.61h0a12.426,12.426,0,0,0-4.36-1.788A11.728,11.728,0,0,0,30.2,12.21H28.935a8.72,8.72,0,0,0-2.093.48l-1.09.349-.959.436L23.834,14a6.5,6.5,0,0,0-.872.654l-.48.349-.785.7c-.262.262-.523.61-.741.872a6.845,6.845,0,0,0-.741.916l-.523.872a11.99,11.99,0,0,0-1.482,4.621V25.29a11.641,11.641,0,0,0,2.006,5.537,4.753,4.753,0,0,0,.567.741v.218a9.722,9.722,0,0,0,1.134,1.177,9.985,9.985,0,0,0,2.79,1.831,4.84,4.84,0,0,0,.828.392l1.57.48,2.311,25.9c0,.61.392.872.7.872s.61-.262.654-.872L33.077,35.4a11.9,11.9,0,0,0,9.33-11.031Z" transform="translate(54.339 33.964)"/>
  <path id="Path_76" data-name="Path 76" class="cls-1" d="M78.348,1.622H12.165A10.377,10.377,0,0,0,1.57,12V78.443A10.377,10.377,0,0,0,12.165,88.82H79.656V84.242H60.123V53.33a14.388,14.388,0,0,1,3.662-9.243h0L84.19,23.77V42.91h4.578V12A10.42,10.42,0,0,0,78.348,1.622ZM36.754,63.489l-1.831-6.845-9.069,21.8,21.8-9.069-6.845-1.788L55.2,53.2V84.46H12.165a5.8,5.8,0,0,1-5.8-5.8v-.392l49.4-49.136,1.788,6.845,9.243-21.494-21.8,8.72L52.1,25.078l-17.44,17.44a19.837,19.837,0,0,0-5.624-12.862l-1.657-1.613,6.889-1.831L12.688,17.1l9.025,21.8,1.831-6.845,1.7,1.482a14.388,14.388,0,0,1,3.968,9.81,9.069,9.069,0,0,1-2.354,6.409L6.148,70.334V12a5.8,5.8,0,0,1,6.017-5.8H78.348A5.842,5.842,0,0,1,84.19,12v4.1Z" transform="translate(-1.57 -1.619)"/>
</svg>
