<svg id="WHITE_Planning" data-name="WHITE Planning" xmlns="http://www.w3.org/2000/svg" viewBox="0 0 37.396 37.262">
  <defs>
    <style>
      .cls-1 {
        fill: #061f39;
      }
    </style>
  </defs>
  <path id="Path_75" data-name="Path 75" class="cls-1" d="M27.563,16.912a4.685,4.685,0,0,0-1.281-3.236L26,13.407l-.185-.169A2.242,2.242,0,0,0,25.49,13h0a4.8,4.8,0,0,0-1.685-.691,4.533,4.533,0,0,0-.961-.1h-.489a3.37,3.37,0,0,0-.809.185l-.421.135-.371.169-.371.2a2.511,2.511,0,0,0-.337.253l-.185.135-.3.27c-.1.1-.2.236-.286.337a2.646,2.646,0,0,0-.286.354l-.2.337a4.635,4.635,0,0,0-.573,1.786v.893a4.5,4.5,0,0,0,.775,2.14,1.837,1.837,0,0,0,.219.286v.084a3.758,3.758,0,0,0,.438.455,3.859,3.859,0,0,0,1.079.708,1.871,1.871,0,0,0,.32.152l.607.185.893,10.011c0,.236.152.337.27.337s.236-.1.253-.337l.893-10.112a4.6,4.6,0,0,0,3.607-4.264Z" transform="translate(9.833 5.638)"/>
  <path id="Path_76" data-name="Path 76" class="cls-1" d="M31.248,1.62H5.665a4.011,4.011,0,0,0-4.1,4.011V31.315a4.011,4.011,0,0,0,4.1,4.011H31.753v-1.77H24.2V21.608a5.561,5.561,0,0,1,1.416-3.573h0l7.887-7.853v7.4h1.77V5.631A4.028,4.028,0,0,0,31.248,1.62ZM15.17,25.535l-.708-2.646-3.505,8.426,8.426-3.505-2.646-.691L22.3,21.557V33.641H5.665A2.241,2.241,0,0,1,3.424,31.4v-.152L22.518,12.254l.691,2.646,3.573-8.308L18.355,9.963l2.747.725-6.741,6.741a7.668,7.668,0,0,0-2.174-4.972l-.64-.624,2.663-.708L5.867,7.6,9.356,16.03l.708-2.646.657.573a5.561,5.561,0,0,1,1.534,3.792,3.505,3.505,0,0,1-.91,2.477L3.34,28.18V5.631A2.241,2.241,0,0,1,5.665,3.39H31.248a2.258,2.258,0,0,1,2.258,2.241V7.215Z" transform="translate(-1.57 -1.619)"/>
</svg>
