<svg id="WHITE_Trip" data-name="WHITE Trip" xmlns="http://www.w3.org/2000/svg" viewBox="0 0 88.102 88.101">
  <defs>
    <style>
      .cls-1 {
        fill: #fff;
      }
    </style>
  </defs>
  <path id="Path_77" data-name="Path 77" class="cls-1" d="M25.984,58.1l2.291-25.857a11.849,11.849,0,0,0,8.81-11.365,12.025,12.025,0,0,0-3.172-8.105l-.7-.749-.485-.44a7.136,7.136,0,0,0-.837-.573h0a11.761,11.761,0,0,0-4.4-1.762,9.339,9.339,0,0,0-2.511-.308H23.738a18.28,18.28,0,0,0-2.114.485l-1.057.352-.969.441-.925.529a4.845,4.845,0,0,0-.925.617,1.718,1.718,0,0,0-.44.352l-.617.617-.749.881-.7.925-.573.837a13.215,13.215,0,0,0-1.454,4.669v2.247a11.145,11.145,0,0,0,2.026,5.55,4.8,4.8,0,0,0,.573.749h0a9.382,9.382,0,0,0,1.145,1.145,8.81,8.81,0,0,0,2.775,1.85,4.89,4.89,0,0,0,.837.4l1.586.485L24.443,57.88c0,.661.352.925.661.925S25.94,58.761,25.984,58.1Z" transform="translate(33.262 18.722)"/>
  <path id="Path_78" data-name="Path 78" class="cls-1" d="M46.193,23.462l1.277-.837.4-.22L48.4,22.1l1.277-.617h.352L33.155,4.3,4.17,33.285,23.9,52.975l-6.916,1.85,23.17,9.823L30.424,41.522l-1.85,6.872L13.6,33.417,33.155,13.859,44.431,25l.881-.793a6.035,6.035,0,0,1,.881-.749Z" transform="translate(2.481 2.924)"/>
  <path id="Path_79" data-name="Path 79" class="cls-1" d="M80.275,2.66H13.188A10.528,10.528,0,0,0,2.66,13.188V80.275A10.484,10.484,0,0,0,13.188,90.759H80.275A10.264,10.264,0,0,0,90.539,82.3a7.708,7.708,0,0,0,.22-2.026V13.188A10.484,10.484,0,0,0,80.275,2.66ZM86.09,81.068v.441a5.594,5.594,0,0,1-5.682,4.625h-50.7l12.554-12.51-4.4-1.85L23.5,86.134H13.188a5.859,5.859,0,0,1-5.9-5.859V34.332h0L10.413,31.2l-3.3-3.26V13.188a5.9,5.9,0,0,1,6.079-5.9H28.649l3,3.039,3-3.039H80.275a5.859,5.859,0,0,1,5.859,5.9V23.5L75.342,34.288a15.065,15.065,0,0,1,1.718,4.4l9.074-8.986V57.722L76.4,47.943a16.387,16.387,0,0,1-3.744,5.682L86.134,67.149V80.364A4.405,4.405,0,0,1,86.09,81.068Z" transform="translate(-2.66 -2.66)"/>
  <path id="Path_80" data-name="Path 80" class="cls-1" d="M12.71,21.976l1.85,4.361,4.4-4.4h0l1.1-1.057V14.62l-1.057,1.057Z" transform="translate(31.56 38.063)"/>
</svg>
