<svg id="WHITE_Trip" data-name="WHITE Trip" xmlns="http://www.w3.org/2000/svg" viewBox="0 0 33.332 33.332">
  <defs>
    <style>
      .cls-1 {
        fill: #041334;
      }
    </style>
  </defs>
  <path id="Path_77" data-name="Path 77" class="cls-1" d="M18.043,27.539l.867-9.783a4.483,4.483,0,0,0,3.333-4.3,4.55,4.55,0,0,0-1.2-3.067l-.267-.283-.183-.167a2.7,2.7,0,0,0-.317-.217h0a4.45,4.45,0,0,0-1.667-.667,3.533,3.533,0,0,0-.95-.117h-.467a6.916,6.916,0,0,0-.8.183l-.4.133-.367.167-.35.2a1.833,1.833,0,0,0-.35.233.65.65,0,0,0-.167.133l-.233.233-.283.333-.267.35-.217.317a5,5,0,0,0-.55,1.767v.85a4.216,4.216,0,0,0,.767,2.1,1.817,1.817,0,0,0,.217.283h0a3.55,3.55,0,0,0,.433.433,3.333,3.333,0,0,0,1.05.7,1.85,1.85,0,0,0,.317.15l.6.183.867,9.766c0,.25.133.35.25.35S18.026,27.789,18.043,27.539Z" transform="translate(4.372 1.526)"/>
  <path id="Path_78" data-name="Path 78" class="cls-1" d="M20.069,11.55l.483-.317.15-.083.2-.117.483-.233h.133L15.136,4.3,4.17,15.266l7.466,7.45-2.617.7,8.766,3.716L14.1,18.383l-.7,2.6L7.736,15.316l7.4-7.4L19.4,12.133l.333-.3a2.283,2.283,0,0,1,.333-.283Z" transform="translate(-1.653 -1.567)"/>
  <path id="Path_79" data-name="Path 79" class="cls-1" d="M32.025,2.66H6.643A3.983,3.983,0,0,0,2.66,6.643V32.025a3.966,3.966,0,0,0,3.983,3.966H32.025a3.883,3.883,0,0,0,3.883-3.2,2.916,2.916,0,0,0,.083-.767V6.643A3.966,3.966,0,0,0,32.025,2.66Zm2.2,29.665v.167a2.117,2.117,0,0,1-2.15,1.75H12.893l4.75-4.733-1.667-.7-5.433,5.433h-3.9A2.217,2.217,0,0,1,4.41,32.025V14.643h0l1.183-1.183-1.25-1.233V6.643a2.233,2.233,0,0,1,2.3-2.233h5.85l1.133,1.15,1.133-1.15H32.025a2.217,2.217,0,0,1,2.217,2.233v3.9l-4.083,4.083a5.7,5.7,0,0,1,.65,1.667l3.433-3.4v10.6l-3.683-3.7a6.2,6.2,0,0,1-1.417,2.15l5.1,5.116v5A1.667,1.667,0,0,1,34.225,32.325Z" transform="translate(-2.66 -2.66)"/>
  <path id="Path_80" data-name="Path 80" class="cls-1" d="M12.71,17.4l.7,1.65,1.667-1.667h0l.417-.4V14.62l-.4.4Z" transform="translate(4.039 5.312)"/>
</svg>
