<svg xmlns="http://www.w3.org/2000/svg" viewBox="0 0 33.231 36.808">
  <defs>
    <style>
      .cls-1 {
        fill: #fff;
      }
    </style>
  </defs>
  <g id="Group_517" data-name="Group 517" transform="translate(-274.001 -44.045)">
    <path id="Path_1704" data-name="Path 1704" class="cls-1" d="M284.635,91.889a3.822,3.822,0,0,1-2.523-.841,43.149,43.149,0,0,1-3.363-3.363A17.814,17.814,0,0,1,274,76.9v-.445a10.662,10.662,0,0,1,21.318-.049,1.854,1.854,0,0,1-.05.544,17.431,17.431,0,0,1-4.748,10.584c-.891.94-2.325,2.473-3.265,3.265a1.5,1.5,0,0,1-.348.249c-.05.05-.1.05-.149.1a3.693,3.693,0,0,1-2.124.74Zm-.4-3.265a2.662,2.662,0,0,0,.4.05c.05,0,.249-.1.4-.149l.249-.2a40.912,40.912,0,0,0,2.869-2.918,13.947,13.947,0,0,0,3.907-8.655,1.751,1.751,0,0,1,.05-.3,7.474,7.474,0,0,0-14.941.052v.2a14.6,14.6,0,0,0,3.908,8.854,34.767,34.767,0,0,0,2.968,3.018Z" transform="translate(0 -11.039)"/>
    <path id="Path_1705" data-name="Path 1705" class="cls-1" d="M309.963,53.844a1.089,1.089,0,0,1-.4-.05,1.56,1.56,0,0,1-1.135-1.93l1.681-6.626a1.584,1.584,0,1,1,3.067.791L311.5,52.657a1.575,1.575,0,0,1-1.533,1.187Z" transform="translate(-17.267)"/>
    <path id="Path_1706" data-name="Path 1706" class="cls-1" d="M318.693,65.217a1.639,1.639,0,0,1-1.385-.791,1.6,1.6,0,0,1,.544-2.176l5.886-3.511a1.586,1.586,0,0,1,1.634,2.719l-5.887,3.513a1.164,1.164,0,0,1-.791.247Z" transform="translate(-21.644 -7.267)"/>
    <path id="Path_1707" data-name="Path 1707" class="cls-1" d="M329.077,82.153a.841.841,0,0,1-.348-.05l-6.776-1.583a1.6,1.6,0,1,1,.743-3.116l6.776,1.583a1.6,1.6,0,0,1,1.187,1.929,1.634,1.634,0,0,1-1.581,1.236Z" transform="translate(-23.47 -16.736)"/>
  </g>
</svg>
