<svg xmlns="http://www.w3.org/2000/svg" viewBox="0 0 882.41 346.993">
  <defs>
    <style>
      .cls-1 {
        fill: #3adbe7;
      }

      .cls-2 {
        fill: none;
        stroke: #3adbe7;
        stroke-width: 22px;
      }

      .cls-3 {
        opacity: 0;
      }

      .cls-4 {
        fill: #aeadb3;
      }

      .cls-5 {
        fill: #061f39;
      }

      .cls-6 {
        fill: #365b81;
      }
    </style>
  </defs>
  <g id="Group_125" data-name="Group 125" transform="matrix(-0.966, 0.259, -0.259, -0.966, 1834.743, 2586.763)">
    <path id="Path_175" data-name="Path 175" class="cls-1" d="M34.827,69.654A34.827,34.827,0,1,1,69.654,34.827,34.682,34.682,0,0,1,34.827,69.654Zm0-53.824a19,19,0,1,0,19,19A18.918,18.918,0,0,0,34.827,15.831Z" transform="translate(384.687 2470.508)"/>
    <path id="Path_177" data-name="Path 177" class="cls-1" d="M34.827,69.654A34.827,34.827,0,1,1,69.654,34.827,34.682,34.682,0,0,1,34.827,69.654Zm0-53.824a19,19,0,1,0,19,19A18.918,18.918,0,0,0,34.827,15.831Z" transform="translate(676.844 2760.002)"/>
    <path id="Path_179" data-name="Path 179" class="cls-1" d="M34.827,69.654A34.827,34.827,0,1,1,69.654,34.827,34.682,34.682,0,0,1,34.827,69.654Zm0-53.824a19,19,0,1,0,19,19A18.918,18.918,0,0,0,34.827,15.831Z" transform="translate(1056.196 2817.52)"/>
    <path id="Path_176" data-name="Path 176" class="cls-2" d="M6881.3,2639.36l136.963,24.756-58.814,219.5,158.583,28.85" transform="translate(-6433.859 -125.903)"/>
    <path id="Path_178" data-name="Path 178" class="cls-2" d="M6847.771,2864.117l324.338,55.078" transform="translate(-6105.856 -70.165)"/>
    <g id="Group_130" data-name="Group 130" transform="matrix(-0.966, -0.259, 0.259, -0.966, 428.51, 2700.238)">
      <g id="Group_127" data-name="Group 127" class="cls-3" transform="translate(48.495 42.916)">
        <g id="Group_126" data-name="Group 126">
          <path id="Path_180" data-name="Path 180" class="cls-4" d="M50.916,80.5c14.389-1.136,30.672-12.5,36.352-25.371,5.68-12.5-1.893-21.963-16.283-20.827h-.379l9.845-22.72h0C109.609,8.935,124,27.49,113.017,52.86c-3.787,8.331-9.845,16.283-17.04,23.477h0L15.7,160.78V160.4L50.916,80.5Z" transform="translate(-4.745 -11.333)"/>
          <path id="Path_181" data-name="Path 181" class="cls-4" d="M13.538,84.1c-1.515-6.437-.757-14.011,3.029-22.341C27.549,36.392,59.736,14.051,88.893,11.4L79.048,34.12c-14.389,1.515-30.672,12.5-35.973,24.992s1.515,21.963,15.9,20.448l-34.837,79.9L13.538,84.1Z" transform="translate(-12.807 -11.148)"/>
        </g>
      </g>
      <g id="Group_129" data-name="Group 129" transform="translate(0 0)">
        <g id="Group_128" data-name="Group 128">
          <path id="Path_182" data-name="Path 182" class="cls-5" d="M15.879,88.608a29.536,29.536,0,1,0,0-59.072H15.5V0h.379A59.148,59.148,0,0,1,74.951,59.072,59.332,59.332,0,0,1,67,88.608h0L16.257,192.363l-.379-.379V88.608Z" transform="translate(43.193 0)"/>
          <path id="Path_183" data-name="Path 183" class="cls-6" d="M7.952,88.987A60.427,60.427,0,0,1,0,59.451,59.4,59.4,0,0,1,58.693,0V29.536A29.253,29.253,0,0,0,29.536,59.072,29.574,29.574,0,0,0,59.072,88.608l.379,103L7.952,88.987Z" transform="translate(1 0)"/>
        </g>
      </g>
    </g>
  </g>
</svg>
