<?xml version="1.0" encoding="utf-8"?>
<!-- Generator: Adobe Illustrator 22.1.0, SVG Export Plug-In . SVG Version: 6.00 Build 0)  -->
<svg version="1.1" id="Group_518" xmlns="http://www.w3.org/2000/svg" xmlns:xlink="http://www.w3.org/1999/xlink" x="0px" y="0px"
	 viewBox="0 0 139.6 34.6" style="enable-background:new 0 0 139.6 34.6;" xml:space="preserve">
<style type="text/css">
	.st0{fill:#FCFCFC;}
</style>
<g id="Group_13">
	<circle id="Ellipse_1" class="st0" cx="91.3" cy="3.5" r="3.2"/>
	<path id="Path_57" class="st0" d="M13.3,12.4L5.8,2.3C5.2,1.4,4.2,0.9,3.2,0.9H0v25.6h6.2V12.2l5.1,6.9c0.9,1.1,2.6,1.3,3.7,0.4
		c0.1-0.1,0.3-0.2,0.4-0.4l5.1-6.8v14.2h6.2V1h-3.1c-1.1,0-2,0.5-2.7,1.4L13.3,12.4z"/>
	<path id="Path_58" class="st0" d="M82.1,18.7V1.1H76v19.3c0,4.7,3,6.2,5.2,7c0.5-0.5,4.2-3.7,4.2-3.7C83.3,23,82.1,21.6,82.1,18.7
		L82.1,18.7z"/>
	<path id="Path_59" class="st0" d="M109,8.5c-3.8,0-5.1,1.3-5.9,2.1c-0.1-0.2-0.2-0.5-0.3-0.7c-0.2-0.6-0.8-1.1-1.5-1.1h-2.8v17.8
		h5.9v-9.8c-0.2-1.8,1.2-3.4,3-3.6c0.1,0,0.2,0,0.4,0c2.3,0,3.5,1.7,3.5,3.9v9.6h5.8V16.5c0.1-4.3-3.3-7.9-7.6-8
		C109.4,8.5,109.2,8.5,109,8.5L109,8.5z"/>
	<path id="Path_60" class="st0" d="M48.7,22V10.7c-2.6-1.4-5.5-2.2-8.5-2.3c-5.9,0-10.7,3.2-10.7,9.6c-0.1,4.9,3.7,9,8.6,9.1
		c2.1,0.2,4.2-0.6,5.7-2.1c0.5,1.4,1.8,2.3,3.3,2.2c0.2-0.2,3.3-2.7,3.3-2.7C49.5,24,48.8,23.1,48.7,22z M43.1,19
		c0,2.1-2.1,3.2-3.7,3.2s-4.1-0.4-4.1-4.4c-0.2-2.6,1.7-4.8,4.3-5c0.2,0,0.5,0,0.7,0c1,0,2,0.3,2.9,0.7L43.1,19z"/>
	<path id="Path_61" class="st0" d="M64,8.4c-2.2-0.1-4.4,0.7-6.1,2.1c-0.1-0.2-0.2-0.5-0.3-0.7c-0.3-0.6-0.8-1-1.5-1h-3l-0.1,25.5
		h6.1v-8.2c0,0,1.3,1,4.5,1c5,0,9.3-3.3,9.3-9.3c0.3-4.9-3.5-9.1-8.4-9.3C64.4,8.4,64.2,8.4,64,8.4L64,8.4z M62.3,22.4
		c-1.1,0-2.2-0.3-3.1-1v-4.9c0-2.7,2.4-3.5,4-3.5s4,0.8,4,4.8C67.2,21.7,64.8,22.4,62.3,22.4L62.3,22.4z"/>
	<path id="Rectangle_9" class="st0" d="M88.3,8.9l5.9,0l-0.1,17.8l-5.9,0L88.3,8.9z"/>
	<path id="Path_62" class="st0" d="M132.9,26.8h6.5l-5.3-8.6c0.3-0.2,0.6-0.5,1-0.7c2.4-2.2,3.7-5.2,3.8-8.4h-5.7
		c-0.1,1.7-0.8,3.3-2,4.6c-1.2,1.1-2.7,1.8-4.4,1.8V1.3h-5.9l-0.1,25.5h5.9v-5.9c0.8,0,1.6-0.1,2.3-0.2L132.9,26.8z"/>
</g>
</svg>
