<?xml version="1.0" encoding="utf-8"?>
<!-- Generator: Adobe Illustrator 22.1.0, SVG Export Plug-In . SVG Version: 6.00 Build 0)  -->
<svg version="1.1" id="Layer_1" xmlns="http://www.w3.org/2000/svg" xmlns:xlink="http://www.w3.org/1999/xlink" x="0px" y="0px"
	 viewBox="0 0 325.2 54.6" style="enable-background:new 0 0 325.2 54.6;" xml:space="preserve">
<style type="text/css">
	.st0{fill:#041334;}
</style>
<g id="Group_17939" transform="translate(0 -96.4)">
	<g id="Group_17936">
		<path id="Path_10550" class="st0" d="M1,121.4v12.7l6.3-6.3L1,121.4z"/>
		<path id="Path_10551" class="st0" d="M45.4,150.2l-2.7-2.7l-3.4-3.4L54,129.4v-7.1l-21.8,21.8l6.2,6.1L45.4,150.2z"/>
		<path id="Path_10552" class="st0" d="M3.9,150.2l8.8-8.8l8.8,8.8h7l-15.8-15.8L1,146.1v4.1L3.9,150.2z"/>
		<path id="Rectangle_1042_1_" class="st0" d="M52.7,98.4V149H2V98.4H52.7 M54.7,96.4H0V151h54.7V96.4z"/>
		<path id="Path_10553" class="st0" d="M27.3,101.1c-8.8,0-16,7.1-16,16c0,0,0,0,0,0c0,4.8,2.2,9.4,5.9,12.5l10,10l9.7-9.7
			c4-3.1,6.3-7.8,6.3-12.8c0.1-8.7-6.8-15.9-15.5-16C27.5,101.1,27.4,101.1,27.3,101.1z M27.3,124.5c-4,0-7.3-3.3-7.3-7.3
			c0-4,3.3-7.3,7.3-7.3s7.3,3.3,7.3,7.3C34.6,121.2,31.3,124.5,27.3,124.5z"/>
	</g>
</g>
<g>
	<g>
		<path class="st0" d="M72.1,18c0-0.6,0.1-1.1,0.4-1.7c0.2-0.4,0.5-0.8,0.9-1.1c0.4-0.3,0.8-0.4,1.2-0.5c0.5-0.1,1-0.2,1.4-0.2
			c0.9,0,1.8,0.1,2.6,0.4c0.5,0.2,1,0.4,1.4,0.8c1,2,2,4.1,3,6.3c1.1,2.2,2.1,4.4,3.2,6.4c1-1.9,1.9-3.8,2.8-5.7
			c0.9-1.9,1.8-3.6,2.5-5.3c0.3-1,1-1.8,1.9-2.3c0.8-0.4,1.6-0.6,2.5-0.6c0.9,0,1.8,0.1,2.7,0.4c0.5,0.2,1,0.4,1.5,0.7l1.5,26.3
			h-6.7L94,25.6c-0.5,1-1,2-1.5,3c-0.5,1-1,2.1-1.5,3.1c-0.5,1-0.9,2-1.3,2.9c-0.4,0.9-0.8,1.7-1.1,2.5h-4.9
			c-0.3-0.7-0.7-1.6-1.1-2.5c-0.4-1-0.9-2-1.4-3c-0.5-1-1-2.1-1.5-3.1c-0.5-1-1-2-1.4-2.8l-0.9,16.3h-6.7L72.1,18z"/>
		<path class="st0" d="M106.2,16.1c0-1,0.3-1.9,1-2.6c0.7-0.7,1.6-1.1,2.5-1c2,0,3.6,1.5,3.6,3.5c0,0,0,0.1,0,0.1c0,1-0.4,1.9-1,2.5
			c-0.7,0.7-1.6,1-2.6,1c-1.9,0-3.5-1.5-3.6-3.4C106.2,16.2,106.2,16.1,106.2,16.1z M106.6,24.4c-0.1-0.8,0.3-1.7,0.9-2.2
			c0.7-0.5,1.6-0.7,2.4-0.6c0.7,0,1.3,0.1,2,0.3c0.6,0.2,1,0.3,1.1,0.3v19.8h-6.4V24.4z"/>
		<path class="st0" d="M117,29.6c0-1.3,0.2-2.5,0.8-3.7c0.5-1.1,1.3-2,2.2-2.7c1-0.7,2.1-1.3,3.2-1.6c2.6-0.7,5.3-0.7,7.9,0
			c1.2,0.3,2.3,0.9,3.2,1.6c0.9,0.7,1.7,1.6,2.2,2.7c0.5,1.2,0.8,2.4,0.8,3.7v12.3h-6.4V31.1c0.1-1.1-0.3-2.2-1-3.1
			c-0.7-0.7-1.7-1.1-2.8-1c-2.5,0-3.8,1.4-3.8,4.1v10.9H117V29.6z"/>
		<path class="st0" d="M141.7,15.3c-0.1-0.8,0.3-1.7,0.9-2.2c0.7-0.5,1.6-0.7,2.4-0.6c0.7,0,1.3,0.1,1.9,0.3
			c0.6,0.2,0.9,0.3,1.1,0.3v9.7c0.6-0.5,1.3-0.9,2.1-1.2c1.1-0.4,2.2-0.6,3.4-0.6c1.1,0,2.2,0.2,3.3,0.5c1,0.3,1.9,0.9,2.7,1.6
			c0.8,0.7,1.4,1.7,1.8,2.7c0.4,1.2,0.7,2.5,0.6,3.8v12.4h-6.4V30.8c0.1-1.1-0.2-2.1-0.9-3c-1.6-1.3-3.9-1.2-5.5,0.2
			c-0.7,1-1.1,2.1-1,3.4v10.5h-6.4V15.3z"/>
		<path class="st0" d="M185.2,41.8c-0.4,0.1-0.7,0.1-1.1,0.2c-0.6,0.1-1.3,0.1-2.1,0.2c-0.8,0.1-1.8,0.1-2.9,0.2
			c-1.1,0.1-2.2,0.1-3.4,0.1c-1.7,0-3.4-0.1-5-0.5c-1.1-0.3-2.2-0.8-3.2-1.5c-0.7-0.5-1.3-1.3-1.7-2.1c-0.3-0.8-0.5-1.7-0.5-2.6
			c-0.2-2,0.7-4,2.4-5.2c1.6-1.1,4.1-1.6,7.5-1.6c0.9,0,1.6,0,2.1,0c0.6,0,1,0.1,1.4,0.1c0-0.9-0.4-1.7-1.1-2.2
			c-1.2-0.6-2.5-0.9-3.8-0.8c-0.7,0-1.5,0-2.2,0.1c-0.5,0.1-1.1,0.2-1.6,0.3c-0.4,0.1-0.7,0.2-1.1,0.4c-0.2,0.1-0.4,0.2-0.6,0.3
			c-0.1-0.1-0.2-0.2-0.3-0.3c-0.2-0.2-0.3-0.4-0.5-0.6c-0.2-0.3-0.3-0.6-0.4-0.9c-0.1-0.3-0.2-0.7-0.2-1c0-2.3,2.4-3.5,7.1-3.5
			c1.5,0,2.9,0.1,4.3,0.4c1.3,0.2,2.5,0.7,3.5,1.4c1,0.7,1.8,1.6,2.4,2.7c0.6,1.3,0.9,2.7,0.9,4.2V41.8z M178.8,33.5
			c-0.3-0.1-0.7-0.1-1.1-0.1c-0.5,0-1.2-0.1-2.1-0.1c-0.7,0-1.3,0.1-2,0.2c-0.4,0.1-0.8,0.3-1.2,0.5c-0.3,0.2-0.5,0.5-0.6,0.8
			c-0.1,0.3-0.2,0.6-0.2,0.9c0,0.3,0,0.5,0.1,0.8c0.1,0.3,0.3,0.5,0.5,0.7c0.4,0.3,0.8,0.4,1.2,0.5c0.7,0.2,1.4,0.2,2.1,0.2
			c0.7,0,1.3,0,1.9-0.1c0.4,0,0.8-0.1,1.2-0.1V33.5z"/>
		<path class="st0" d="M190.6,35.7c0.3,0.2,0.7,0.4,1.1,0.6c0.6,0.3,1.2,0.5,1.8,0.6c0.8,0.2,1.5,0.4,2.3,0.5
			c0.9,0.1,1.8,0.2,2.7,0.2c0.8,0,1.7-0.1,2.5-0.3c0.5-0.1,0.8-0.6,0.8-1.1c0-0.5-0.3-0.9-0.7-1.1c-0.7-0.3-1.4-0.4-2.2-0.5
			l-2.1-0.2c-1-0.1-2-0.3-3-0.6c-0.9-0.2-1.8-0.6-2.5-1.1c-0.7-0.5-1.3-1.1-1.7-1.9c-0.5-0.9-0.7-1.9-0.6-2.9c0-0.9,0.2-1.9,0.5-2.7
			c0.4-0.9,1-1.6,1.7-2.2c0.9-0.7,1.9-1.2,3-1.5c1.4-0.4,2.8-0.6,4.3-0.5c1.4,0,2.9,0.1,4.3,0.3c1.1,0.2,2.1,0.5,3.1,1
			c0.5,0.2,0.9,0.6,1.2,1c0.3,0.4,0.5,0.9,0.5,1.4c0,0.4-0.1,0.8-0.3,1.1c-0.2,0.3-0.4,0.6-0.6,0.9c-0.2,0.2-0.4,0.4-0.6,0.6
			c-0.2,0.1-0.3,0.2-0.4,0.2c-0.2-0.2-0.4-0.3-0.7-0.4c-0.5-0.3-0.9-0.5-1.4-0.6c-0.7-0.2-1.4-0.4-2.2-0.5c-0.9-0.2-1.9-0.2-2.9-0.2
			c-0.9-0.1-1.7,0.1-2.5,0.4c-0.4,0.2-0.7,0.6-0.7,1.1c0,0.4,0.2,0.8,0.6,1c0.6,0.2,1.3,0.4,1.9,0.5l3.6,0.5
			c0.9,0.1,1.8,0.3,2.6,0.6c0.8,0.2,1.6,0.6,2.2,1.1c0.7,0.5,1.2,1.1,1.6,1.8c0.4,0.8,0.6,1.8,0.6,2.7c0.1,2.1-0.9,4-2.6,5.2
			c-2.1,1.4-4.6,2-7.1,1.9c-2.5,0-4.9-0.3-7.3-1.1c-0.7-0.2-1.5-0.5-2.1-0.9c-0.4-0.2-0.8-0.4-1.1-0.7L190.6,35.7z"/>
		<path class="st0" d="M212.7,18.1c0-0.5,0.1-1,0.2-1.5c0.1-0.4,0.3-0.7,0.6-1.1c0.2-0.3,0.5-0.5,0.9-0.6c0.3-0.1,0.7-0.2,1-0.3
			c0.3-0.1,0.6-0.1,0.9-0.2c0.4-0.1,0.8-0.1,1.4-0.1c0.5,0,1.2-0.1,2-0.1c0.8,0,1.7,0,2.9,0c2-0.1,4,0.2,6,0.8
			c1.4,0.4,2.7,1.1,3.8,2.1c0.9,0.8,1.6,1.9,2.1,3c0.4,1.1,0.6,2.3,0.6,3.5c0,1.5-0.3,3-1,4.4c-0.7,1.4-1.9,2.5-3.3,3.2
			c0.4,0.6,0.8,1.4,1.3,2.2c0.5,0.9,1,1.8,1.5,2.7c0.5,0.9,1,1.9,1.5,2.9c0.5,1,1,2,1.4,3H229c-0.1-0.3-0.4-0.8-0.7-1.7
			c-0.4-0.8-0.8-1.7-1.2-2.6c-0.5-0.9-0.9-1.9-1.4-2.8c-0.5-0.9-0.9-1.6-1.3-2.1c-0.4,0.1-0.8,0.1-1.1,0.1H222c-0.2,0-0.4,0-0.7,0
			c-0.3,0-0.6,0-0.9,0c-0.3,0-0.6,0-0.8,0c-0.2,0-0.3,0-0.5-0.1v9.3h-6.5V18.1z M219.2,27c0.1,0,0.2,0,0.3,0c0.1,0,0.4,0.1,0.6,0.1
			c0.3,0,0.6,0,1,0.1c0.4,0,0.9,0,1.5,0c0.9,0,1.9-0.1,2.8-0.3c0.6-0.1,1.2-0.4,1.7-0.8c0.4-0.3,0.7-0.7,0.8-1.2
			c0.1-0.4,0.2-0.9,0.2-1.3c0-0.4-0.1-0.9-0.2-1.3c-0.2-0.5-0.4-0.9-0.8-1.2c-0.5-0.4-1.1-0.7-1.8-0.9c-1-0.3-2-0.4-3.1-0.4
			c-0.9,0-1.7,0-2.2,0.1c-0.5,0-0.9,0.1-1,0.1V27z"/>
		<path class="st0" d="M238,31.7c0-1.5,0.3-2.9,0.9-4.3c0.6-1.3,1.4-2.4,2.4-3.4c1-1,2.3-1.7,3.6-2.3c2.8-1.1,5.9-1.1,8.8,0
			c1.3,0.5,2.5,1.3,3.6,2.3c1,1,1.8,2.1,2.4,3.4c1.2,2.7,1.2,5.8,0,8.5c-0.6,1.3-1.4,2.4-2.4,3.4c-1,1-2.3,1.7-3.6,2.3
			c-2.8,1.1-5.9,1.1-8.8,0c-1.3-0.5-2.5-1.3-3.6-2.3c-1-1-1.8-2.1-2.4-3.4C238.3,34.7,238,33.2,238,31.7z M249.3,36.7
			c0.6,0,1.3-0.1,1.9-0.4c0.6-0.2,1.1-0.6,1.5-1c0.4-0.5,0.8-1,1-1.6c0.5-1.3,0.5-2.7,0-4c-0.2-0.6-0.5-1.1-1-1.6
			c-0.4-0.4-0.9-0.8-1.5-1c-1.2-0.5-2.5-0.5-3.7,0c-0.6,0.3-1.1,0.6-1.5,1c-0.4,0.5-0.8,1-1,1.6c-0.5,1.3-0.5,2.7,0,4
			c0.2,0.6,0.5,1.1,1,1.6c0.4,0.4,0.9,0.8,1.5,1C248,36.6,248.6,36.7,249.3,36.7L249.3,36.7z"/>
		<path class="st0" d="M264.1,18.4c-0.1-0.8,0.3-1.7,0.9-2.2c0.7-0.5,1.6-0.7,2.4-0.6c0.7,0,1.3,0.1,2,0.3c0.6,0.2,1,0.3,1.1,0.3
			v5.4h4.6c0.9-0.1,1.8,0.2,2.6,0.7c0.5,0.6,0.8,1.4,0.8,2.2c0,0.7-0.1,1.3-0.3,1.9c-0.1,0.4-0.3,0.8-0.5,1.2h-7.1v6.3
			c0,0.5,0.1,1,0.3,1.5c0.2,0.3,0.4,0.6,0.7,0.9c0.3,0.2,0.6,0.4,1,0.4c0.4,0.1,0.7,0.1,1.1,0.1c0.7,0,1.4-0.1,2-0.3
			c0.5-0.2,0.9-0.4,1.3-0.6l2.5,4.4c-0.3,0.3-0.7,0.5-1,0.7c-0.5,0.3-1.1,0.6-1.6,0.8c-0.7,0.3-1.4,0.5-2.2,0.6
			c-0.8,0.2-1.7,0.3-2.5,0.3c-2.1,0.1-4.2-0.6-5.9-2c-1.4-1.4-2.2-3.3-2.1-5.3V18.4z"/>
		<path class="st0" d="M300.7,41.8c-0.4,0.1-0.7,0.1-1.1,0.2c-0.6,0.1-1.3,0.1-2.1,0.2c-0.8,0.1-1.8,0.1-2.9,0.2
			c-1.1,0.1-2.2,0.1-3.4,0.1c-1.7,0-3.4-0.1-5-0.5c-1.1-0.3-2.2-0.8-3.2-1.5c-0.7-0.5-1.3-1.3-1.7-2.1c-0.3-0.8-0.5-1.7-0.5-2.6
			c-0.2-2,0.7-4,2.4-5.2c1.6-1.1,4.1-1.6,7.5-1.6c0.8,0,1.6,0,2.1,0c0.6,0,1,0.1,1.4,0.1c0-0.9-0.4-1.7-1.1-2.2
			c-1.2-0.6-2.5-0.9-3.8-0.8c-0.7,0-1.4,0-2.2,0.1c-0.5,0.1-1.1,0.2-1.6,0.3c-0.4,0.1-0.7,0.2-1.1,0.4c-0.2,0.1-0.4,0.2-0.6,0.3
			c-0.1-0.1-0.2-0.2-0.3-0.3c-0.2-0.2-0.3-0.4-0.5-0.6c-0.2-0.3-0.3-0.6-0.4-0.9c-0.1-0.3-0.2-0.7-0.2-1c0-2.3,2.4-3.5,7.1-3.5
			c1.5,0,2.9,0.1,4.3,0.4c1.3,0.2,2.5,0.7,3.5,1.4c1,0.7,1.8,1.6,2.4,2.7c0.6,1.3,0.9,2.7,0.9,4.2V41.8z M294.2,33.5
			c-0.4-0.1-0.7-0.1-1.1-0.1c-0.5,0-1.2-0.1-2.1-0.1c-0.7,0-1.3,0.1-2,0.2c-0.4,0.1-0.8,0.3-1.2,0.5c-0.3,0.2-0.5,0.5-0.6,0.8
			c-0.1,0.3-0.2,0.6-0.2,0.9c0,0.3,0,0.5,0.1,0.8c0.1,0.3,0.3,0.5,0.5,0.7c0.4,0.3,0.8,0.4,1.2,0.5c0.7,0.2,1.4,0.2,2.1,0.2
			c0.7,0,1.3,0,1.9-0.1c0.4,0,0.8-0.1,1.2-0.1L294.2,33.5z"/>
		<path class="st0" d="M306.1,35.7c0.3,0.2,0.7,0.4,1.1,0.6c0.6,0.3,1.2,0.5,1.8,0.6c0.8,0.2,1.5,0.4,2.3,0.5
			c0.9,0.1,1.8,0.2,2.7,0.2c0.8,0,1.7-0.1,2.5-0.3c0.5-0.1,0.8-0.6,0.8-1.1c0-0.5-0.3-0.9-0.7-1.1c-0.7-0.3-1.4-0.4-2.2-0.5
			l-2.1-0.2c-1-0.1-2-0.3-3-0.6c-0.9-0.2-1.8-0.6-2.5-1.1c-0.7-0.5-1.3-1.1-1.7-1.9c-0.5-0.9-0.7-1.9-0.6-2.9c0-0.9,0.2-1.9,0.5-2.7
			c0.4-0.9,1-1.6,1.7-2.2c0.9-0.7,1.9-1.2,3-1.5c1.4-0.4,2.8-0.6,4.3-0.5c1.5,0,2.9,0.1,4.3,0.3c1.1,0.2,2.1,0.5,3.1,1
			c0.5,0.2,0.9,0.6,1.2,1c0.3,0.4,0.5,0.9,0.5,1.4c0,0.4-0.1,0.8-0.3,1.1c-0.2,0.3-0.4,0.6-0.6,0.9c-0.2,0.2-0.4,0.4-0.6,0.6
			c-0.2,0.1-0.3,0.2-0.4,0.2c-0.2-0.2-0.4-0.3-0.7-0.4c-0.5-0.3-0.9-0.5-1.4-0.6c-0.7-0.2-1.4-0.4-2.2-0.5c-0.9-0.2-1.9-0.2-2.9-0.2
			c-0.9-0.1-1.7,0.1-2.5,0.4c-0.4,0.2-0.7,0.6-0.7,1.1c0,0.4,0.2,0.8,0.6,1c0.6,0.2,1.3,0.4,1.9,0.5l3.6,0.5
			c0.9,0.1,1.8,0.3,2.6,0.6c0.8,0.2,1.6,0.6,2.2,1.1c0.7,0.5,1.2,1.1,1.6,1.8c0.4,0.8,0.6,1.8,0.6,2.7c0.1,2.1-0.9,4-2.6,5.2
			c-2.1,1.4-4.6,2-7.1,1.9c-2.5,0-4.9-0.3-7.3-1.1c-0.7-0.2-1.5-0.5-2.1-0.9c-0.4-0.2-0.8-0.4-1.1-0.7L306.1,35.7z"/>
	</g>
</g>
</svg>
