<svg xmlns="http://www.w3.org/2000/svg" viewBox="0 0 266.5 54.6">
  <defs>
    <style>
      .cls-1 {
        fill: #041334;
      }
    </style>
  </defs>
  <g id="Group_17939" data-name="Group 17939" transform="translate(0 -96.4)">
    <g id="Group_17936" data-name="Group 17936">
      <path id="Path_10550" data-name="Path 10550" class="cls-1" d="M1,121.4v12.7l6.3-6.3Z"/>
      <path id="Path_10551" data-name="Path 10551" class="cls-1" d="M45.4,150.2l-2.7-2.7-3.4-3.4L54,129.4v-7.1L32.2,144.1l6.2,6.1Z"/>
      <path id="Path_10552" data-name="Path 10552" class="cls-1" d="M3.9,150.2l8.8-8.8,8.8,8.8h7L12.7,134.4,1,146.1v4.1Z"/>
      <path id="Rectangle_1042_1_" class="cls-1" d="M52.7,98.4V149H2V98.4H52.7m2-2H0V151H54.7V96.4Z"/>
      <path id="Path_10553" data-name="Path 10553" class="cls-1" d="M27.3,101.1a15.983,15.983,0,0,0-16,16,16.266,16.266,0,0,0,5.9,12.5l10,10,9.7-9.7a16.156,16.156,0,0,0,6.3-12.8A15.772,15.772,0,0,0,27.3,101.1Zm0,23.4a7.3,7.3,0,1,1,7.3-7.3A7.341,7.341,0,0,1,27.3,124.5Z"/>
    </g>
    <g id="Group_17937" data-name="Group 17937">
      <path id="Path_10554" data-name="Path 10554" class="cls-1" d="M72.2,114.5a4.256,4.256,0,0,1,.4-1.7,2.445,2.445,0,0,1,.9-1.1,3.08,3.08,0,0,1,1.2-.5,5.9,5.9,0,0,1,1.4-.2,6.772,6.772,0,0,1,2.6.4,3.4,3.4,0,0,1,1.4.8q1.5,3,3,6.3c1.1,2.2,2.1,4.4,3.2,6.5,1-1.9,1.9-3.8,2.8-5.7s1.8-3.6,2.5-5.3a4.477,4.477,0,0,1,1.9-2.3,5.135,5.135,0,0,1,2.5-.6,7.664,7.664,0,0,1,2.7.4,7.2,7.2,0,0,1,1.5.7l1.5,26.3H95l-.9-16.4-1.5,3c-.5,1-1,2.1-1.5,3.1s-.9,2-1.3,2.9-.8,1.7-1.1,2.5h-5c-.3-.7-.7-1.6-1.1-2.5-.4-1-.9-2-1.4-3s-1-2.1-1.5-3.1l-1.4-2.8-.9,16.3H70.6Z"/>
      <path id="Path_10555" data-name="Path 10555" class="cls-1" d="M108.9,140.7c.1.1.3.1.7.3a9.289,9.289,0,0,1,1.3.4,8.419,8.419,0,0,0,1.8.3,14.768,14.768,0,0,0,2.1.1c2.1,0,3.5-.4,4.4-1.3a5.94,5.94,0,0,0,1.4-4.4,5.747,5.747,0,0,1-2.3,1.5,8.4,8.4,0,0,1-3.1.5,12.127,12.127,0,0,1-3.4-.5,8.184,8.184,0,0,1-2.8-1.4,5.46,5.46,0,0,1-1.8-2.4,9.072,9.072,0,0,1-.7-3.5v-9.4a2.531,2.531,0,0,1,.9-2.2,4.265,4.265,0,0,1,2.4-.6,6.448,6.448,0,0,1,2,.3,6.2,6.2,0,0,0,1.1.3V129a3.1,3.1,0,0,0,3.7,3.6,3.705,3.705,0,0,0,2.8-1,4.4,4.4,0,0,0,1-3.2V121a2.531,2.531,0,0,1,.9-2.2,4.265,4.265,0,0,1,2.4-.6,6.448,6.448,0,0,1,2,.3,6.2,6.2,0,0,0,1.1.3v16.9a15.786,15.786,0,0,1-.8,5.2,8.568,8.568,0,0,1-2.3,3.5,11.009,11.009,0,0,1-3.5,2,16.53,16.53,0,0,1-4.6.6,28.8,28.8,0,0,1-3.2-.2,15.028,15.028,0,0,1-2.6-.5c-.7-.2-1.3-.3-1.8-.5a4.418,4.418,0,0,0-.8-.3Z"/>
      <path id="Path_10556" data-name="Path 10556" class="cls-1" d="M131.9,114.6a6.053,6.053,0,0,1,.2-1.5,3.88,3.88,0,0,1,.6-1.1,1.8,1.8,0,0,1,.9-.6c.3-.1.7-.2,1-.3s.6-.1.9-.2a5.721,5.721,0,0,1,1.4-.1c.6,0,1.2-.1,2-.1h2.9a20.26,20.26,0,0,1,6,.8,10.359,10.359,0,0,1,3.9,2.1,7.477,7.477,0,0,1,2.1,3,10.3,10.3,0,0,1,.6,3.5,9.2,9.2,0,0,1-1,4.4,7.852,7.852,0,0,1-3.3,3.2c.4.6.8,1.4,1.3,2.2s1,1.8,1.5,2.7,1,1.9,1.5,2.9,1,2,1.4,3h-7.6c-.1-.3-.4-.8-.7-1.7-.4-.8-.8-1.7-1.2-2.6-.5-.9-.9-1.9-1.4-2.8a15.993,15.993,0,0,0-1.3-2.1,4.484,4.484,0,0,1-1.1.1h-3.6a.749.749,0,0,1-.5-.1v9.3h-6.5v-24Zm6.5,8.9h.3c.1,0,.4.1.6.1a3.751,3.751,0,0,1,1,.1h1.5a10.883,10.883,0,0,0,2.8-.3,5.389,5.389,0,0,0,1.7-.8,1.991,1.991,0,0,0,.8-1.2,6.881,6.881,0,0,0,.2-1.3,5.853,5.853,0,0,0-.2-1.3,2.8,2.8,0,0,0-.8-1.2,3.8,3.8,0,0,0-1.8-.9,12.306,12.306,0,0,0-3.1-.4,13.469,13.469,0,0,0-2.2.1,5.13,5.13,0,0,1-1,.1v7Z"/>
      <path id="Path_10557" data-name="Path 10557" class="cls-1" d="M157.3,128.3a10.357,10.357,0,0,1,.9-4.3,11.645,11.645,0,0,1,2.4-3.4,11.111,11.111,0,0,1,3.6-2.3,12.728,12.728,0,0,1,4.4-.8,13.172,13.172,0,0,1,4.4.8,9.673,9.673,0,0,1,3.6,2.3A11.645,11.645,0,0,1,179,124a10.03,10.03,0,0,1,.9,4.3,10.357,10.357,0,0,1-.9,4.3,11.645,11.645,0,0,1-2.4,3.4,11.111,11.111,0,0,1-3.6,2.3,12.5,12.5,0,0,1-8.8,0,9.673,9.673,0,0,1-3.6-2.3,11.645,11.645,0,0,1-2.4-3.4A10.357,10.357,0,0,1,157.3,128.3Zm11.3,5a4.058,4.058,0,0,0,1.9-.4,5.6,5.6,0,0,0,1.5-1,4.355,4.355,0,0,0,1-1.6,6.817,6.817,0,0,0,0-4,5.372,5.372,0,0,0-1-1.6,3.956,3.956,0,0,0-1.5-1,4.712,4.712,0,0,0-3.8,0,5.6,5.6,0,0,0-1.5,1,4.355,4.355,0,0,0-1,1.6,6.817,6.817,0,0,0,0,4,5.372,5.372,0,0,0,1,1.6,3.956,3.956,0,0,0,1.5,1A4.058,4.058,0,0,0,168.6,133.3Z"/>
      <path id="Path_10558" data-name="Path 10558" class="cls-1" d="M189.9,129c0,2.8,1.3,4.2,3.8,4.2s3.8-1.4,3.8-4.2v-8a2.531,2.531,0,0,1,.9-2.2,4.265,4.265,0,0,1,2.4-.6,6.448,6.448,0,0,1,2,.3,6.2,6.2,0,0,0,1.1.3v11.5a9.346,9.346,0,0,1-.8,3.9A8.26,8.26,0,0,1,201,137a10.857,10.857,0,0,1-3.2,1.7,13.364,13.364,0,0,1-4,.6,12.9,12.9,0,0,1-4-.6,8.183,8.183,0,0,1-3.2-1.7,7.4,7.4,0,0,1-2.1-2.8,9.346,9.346,0,0,1-.8-3.9v-9.2a2.531,2.531,0,0,1,.9-2.2,4.265,4.265,0,0,1,2.4-.6,6.448,6.448,0,0,1,2,.3,6.2,6.2,0,0,0,1.1.3V129Z"/>
      <path id="Path_10559" data-name="Path 10559" class="cls-1" d="M208.2,114.9a2.531,2.531,0,0,1,.9-2.2,4.265,4.265,0,0,1,2.4-.6,6.448,6.448,0,0,1,2,.3,6.2,6.2,0,0,0,1.1.3v5.4h4.6a3.682,3.682,0,0,1,2.6.7,2.947,2.947,0,0,1,.8,2.2,5.822,5.822,0,0,1-.3,1.9,8.659,8.659,0,0,1-.5,1.2h-7.1v6.3a3.339,3.339,0,0,0,.3,1.5,3.114,3.114,0,0,0,.7.9,1.777,1.777,0,0,0,1,.4,4.1,4.1,0,0,0,1.1.1,6.448,6.448,0,0,0,2-.3,3.962,3.962,0,0,0,1.3-.6l2.5,4.4a4.309,4.309,0,0,1-1,.7c-.5.3-1,.5-1.6.8-.6.2-1.4.4-2.2.6a10.075,10.075,0,0,1-2.5.3,8.42,8.42,0,0,1-5.9-2,6.929,6.929,0,0,1-2.1-5.3v-17Z"/>
      <path id="Path_10560" data-name="Path 10560" class="cls-1" d="M231.2,131a3.552,3.552,0,0,0,.4.9,3,3,0,0,0,1,.9,3.819,3.819,0,0,0,1.6.6,7.865,7.865,0,0,0,2.3.2,13.554,13.554,0,0,0,2-.2,6.221,6.221,0,0,0,1.6-.4,6.6,6.6,0,0,0,1.1-.4c.3-.1.5-.2.5-.3l2.2,4.5c-.2.1-.6.3-1.1.6a6.9,6.9,0,0,1-1.9.7c-.7.2-1.6.4-2.6.6a16.857,16.857,0,0,1-3.3.3,11.582,11.582,0,0,1-4.2-.7,10.783,10.783,0,0,1-3.4-2.1,9.289,9.289,0,0,1-2.3-3.4,11.419,11.419,0,0,1-.8-4.6,12.307,12.307,0,0,1,.8-4.4,8.919,8.919,0,0,1,2.3-3.4,10.427,10.427,0,0,1,3.5-2.2,12.418,12.418,0,0,1,8.2-.2,9.041,9.041,0,0,1,2.9,1.6,6.567,6.567,0,0,1,1.8,2.3,6.159,6.159,0,0,1,.6,2.6,7.635,7.635,0,0,1-.5,2.7,4.063,4.063,0,0,1-1.9,2,12.418,12.418,0,0,1-3.6,1.3,32.031,32.031,0,0,1-5.9.4h-1.3Zm-.3-4.2a41.894,41.894,0,0,0,4.2-.2,7.99,7.99,0,0,0,2.2-.5,1.738,1.738,0,0,0,.9-.7,2.353,2.353,0,0,0,.2-.8,2.057,2.057,0,0,0-.8-1.5,3.715,3.715,0,0,0-2.3-.6,4.058,4.058,0,0,0-1.9.4,4.486,4.486,0,0,0-1.3,1,3.924,3.924,0,0,0-.8,1.4A4.191,4.191,0,0,0,230.9,126.8Z"/>
      <path id="Path_10561" data-name="Path 10561" class="cls-1" d="M248.7,132.3a3.581,3.581,0,0,0,1.1.6,18.883,18.883,0,0,0,1.8.6,15.536,15.536,0,0,0,2.3.5,24.517,24.517,0,0,0,2.7.2,8.075,8.075,0,0,0,2.5-.3,1.053,1.053,0,0,0,.8-1.1,1.081,1.081,0,0,0-.7-1.1,7.991,7.991,0,0,0-2.2-.5l-2.1-.2a15.945,15.945,0,0,1-3-.6,8.217,8.217,0,0,1-2.5-1.1,5.194,5.194,0,0,1-1.7-1.9,6.235,6.235,0,0,1-.6-2.9,7.635,7.635,0,0,1,.5-2.7,5.951,5.951,0,0,1,1.7-2.2,10.512,10.512,0,0,1,3-1.5,13.729,13.729,0,0,1,4.3-.5,26.287,26.287,0,0,1,4.3.3,8.7,8.7,0,0,1,3.1,1,4,4,0,0,1,1.2,1,2.389,2.389,0,0,1,.5,1.4,2.016,2.016,0,0,1-.3,1.1l-.6.9-.6.6c-.2.1-.3.2-.4.2a3.217,3.217,0,0,0-.7-.4,9.75,9.75,0,0,0-1.4-.6,10.293,10.293,0,0,0-2.2-.5,24.772,24.772,0,0,0-2.9-.2,5.143,5.143,0,0,0-2.5.4,1.167,1.167,0,0,0-.7,1.1,1,1,0,0,0,.6,1,12.384,12.384,0,0,0,1.9.5l3.6.5a10.958,10.958,0,0,1,2.6.6,7.561,7.561,0,0,1,2.2,1.1,5.48,5.48,0,0,1,1.6,1.8,5.666,5.666,0,0,1,.6,2.7,6.093,6.093,0,0,1-2.6,5.2c-1.7,1.3-4.1,1.9-7.1,1.9a25.844,25.844,0,0,1-4.2-.3c-1.2-.2-2.3-.5-3.1-.7a10.914,10.914,0,0,1-2.1-.9,7.175,7.175,0,0,1-1.1-.7Z"/>
    </g>
  </g>
</svg>
