<svg xmlns="http://www.w3.org/2000/svg" viewBox="0 0 191 40.818">
  <defs>
    <style>
      .cls-1 {
        fill: #041334;
      }
    </style>
  </defs>
  <g id="Group_18031" data-name="Group 18031" transform="translate(-136 -35.684)">
    <path id="Path_1" data-name="Path 1" class="cls-1" d="M44.537,118.554l-18.369,5.821a5.427,5.427,0,0,1-3.628-.076L4.548,118.1.39,119.385a.472.472,0,0,0,0,.907l21.922,7.559a6.353,6.353,0,0,0,3.931.076l22.451-7.106a.472.472,0,0,0,0-.907Z" transform="translate(135.95 -51.699)"/>
    <path id="Path_2" data-name="Path 2" class="cls-1" d="M44.915,108.654l-18.747,5.9a5.427,5.427,0,0,1-3.629-.076L4.245,108.2.39,109.41a.472.472,0,0,0,0,.907l21.922,7.559a6.353,6.353,0,0,0,3.931.076l22.451-7.106a.472.472,0,0,0,0-.907Z" transform="translate(135.95 -49.283)"/>
    <path id="Path_3" data-name="Path 3" class="cls-1" d="M44.737,98.678,26.368,104.5a5.427,5.427,0,0,1-3.629-.076L4.823,98.3.59,99.585a.472.472,0,0,0,0,.907l21.922,7.559a6.353,6.353,0,0,0,3.931.076l22.451-7.106a.472.472,0,0,0,0-.907Z" transform="translate(135.901 -46.867)"/>
    <path id="Path_4" data-name="Path 4" class="cls-1" d="M48.995,88.119l-22.3-7.711a4.585,4.585,0,0,0-3.175,0L11.273,84.339.69,87.59a.472.472,0,0,0,0,.907l21.922,7.559a6.354,6.354,0,0,0,3.931.076l22.451-7.106a.472.472,0,0,0,0-.907" transform="translate(135.877 -42.431)"/>
    <path id="Path_86_1_" class="cls-1" d="M1034.527,152.633c0,4.354-3.238,7.145-8.15,7.145h-4.242V166.7H1017V145.6h9.377C1031.178,145.489,1034.527,148.5,1034.527,152.633Zm-8.484-2.791h-3.907v5.47h3.907c1.786,0,3.126-.893,3.126-2.791C1029.168,150.736,1027.94,149.842,1026.042,149.842Z" transform="translate(-813.023 -94.99)"/>
    <path id="Path_87_1_" class="cls-1" d="M1034.9,145.3h5.135v21.323H1034.9Z" transform="translate(-810.941 -95.025)"/>
    <path id="Path_88_1_" class="cls-1" d="M1055.889,165.994h-3.461l-.67-1.786h-.223c-.781,1.228-2.233,2.121-4.689,2.121-3.349,0-5.247-2.009-5.247-4.689,0-3.126,2.233-4.912,6.81-4.912a11.012,11.012,0,0,1,2.679.335v-.447c0-1.451-1.228-1.9-3.126-1.9a8.528,8.528,0,0,0-3.684.893l-1.563-3.572a12.692,12.692,0,0,1,6.363-1.34c4.465,0,7.033,2.456,7.033,6.028v9.266Zm-4.912-6.252a5.839,5.839,0,0,0-2.01-.335c-1.675,0-2.679.67-2.679,1.9a1.86,1.86,0,0,0,1.9,1.786h.223a2.447,2.447,0,0,0,2.568-2.121v-1.228Z" transform="translate(-810.161 -94.396)"/>
    <path id="Path_89_1_" class="cls-1" d="M1058.579,151.677V147.1h5.135v4.577h3.349v3.8h-3.349v5.693a1.066,1.066,0,0,0,1,1.228h.223a2.031,2.031,0,0,0,1.228-.447l1.34,3.461a6.9,6.9,0,0,1-4.131,1.228c-3.572,0-5.024-2.344-5.024-5.359v-5.917H1055.9v-3.907l2.679.223Z" transform="translate(-808.497 -94.815)"/>
    <path id="Path_90_1_" class="cls-1" d="M1074.979,155.705v10.829h-5.135V155.705H1067.5V151.8h2.456v-.335c0-3.907,2.01-6.363,6.028-6.363a11.341,11.341,0,0,1,3.8.67l-1.563,3.684a2.617,2.617,0,0,0-1.228-.223,1.813,1.813,0,0,0-1.786,1.675v1h3.684v3.907l-3.908-.112Z" transform="translate(-807.147 -95.048)"/>
    <path id="Path_91_1_" class="cls-1" d="M1086.315,166.341a7.538,7.538,0,0,1-7.815-7.7,7.872,7.872,0,1,1,8.038,7.7Zm2.9-7.7c0-2.344-1.116-3.8-2.9-3.8s-2.9,1.563-2.9,3.8c0,2.344,1.116,3.8,2.9,3.8,1.786-.112,2.9-1.563,2.9-3.8Z" transform="translate(-805.867 -94.408)"/>
    <path id="Path_92_1_" class="cls-1" d="M1103.942,155.454h-.781c-1.9,0-3.126,1.228-3.126,3.349v7.145H1094.9V151.1h3.126l.893,2.009h.223a4.455,4.455,0,0,1,4.13-2.009h.781l-.112,4.354Z" transform="translate(-803.959 -94.35)"/>
    <path id="Path_93_1_" class="cls-1" d="M1110.035,165.984H1104.9V151.136h3.126l.893,2.009h.223a5.183,5.183,0,0,1,4.688-2.344,6.051,6.051,0,0,1,5.135,2.456h.223a4.88,4.88,0,0,1,4.577-2.456c3.8,0,6.028,2.456,6.028,6.475v8.708h-5.135v-8.261a2.358,2.358,0,0,0-2.344-2.344,2.318,2.318,0,0,0-2.344,2.121v8.6h-5.024v-8.373a2.384,2.384,0,0,0-2.456-2.344,2.358,2.358,0,0,0-2.344,2.344Z" transform="translate(-802.795 -94.386)"/>
    <circle id="Ellipse_1_1_" class="cls-1" cx="0.893" cy="0.893" r="0.893" transform="translate(228.694 35.684)"/>
    <path id="Path_57_1_" class="cls-1" d="M94.8,93.226l-2.121-2.791a1.014,1.014,0,0,0-.781-.335H91v7.145h1.675V93.226l1.451,1.9a.706.706,0,0,0,1,.112l.112-.112,1.451-1.9v4.019h1.675V90.1H97.7a1.013,1.013,0,0,0-.781.335Z" transform="translate(113.022 -54.192)"/>
    <path id="Path_58_1_" class="cls-1" d="M111.775,95.012V90.1H110.1v5.359a1.773,1.773,0,0,0,1.451,1.9c.112-.112,1.228-1,1.228-1a1.17,1.17,0,0,1-1-1.34Z" transform="translate(115.245 -54.192)"/>
    <path id="Path_59_1_" class="cls-1" d="M118.614,92a1.987,1.987,0,0,0-1.675.558c0-.112-.112-.112-.112-.223-.112-.223-.223-.335-.447-.335H115.6v5.024h1.675V94.344a.912.912,0,0,1,.893-1h.112c.67,0,1,.447,1,1.116v2.679h1.675v-2.9A2.146,2.146,0,0,0,118.837,92Z" transform="translate(115.885 -53.971)"/>
    <path id="Path_60_1_" class="cls-1" d="M103.859,95.7V92.57a4.689,4.689,0,0,0-2.344-.67c-1.675,0-3.014.893-3.014,2.679a2.558,2.558,0,0,0,2.344,2.568,2.42,2.42,0,0,0,1.563-.558,1.109,1.109,0,0,0,.893.67c.112-.112.893-.781.893-.781A1.014,1.014,0,0,1,103.859,95.7Zm-1.563-.781a.977.977,0,0,1-1,.893c-.447,0-1.116-.112-1.116-1.228a1.263,1.263,0,0,1,1.228-1.34h.223a1.614,1.614,0,0,1,.781.223Z" transform="translate(113.895 -53.983)"/>
    <path id="Path_61_1_" class="cls-1" d="M107.414,92a2.742,2.742,0,0,0-1.675.558c0-.112-.112-.112-.112-.223a.58.58,0,0,0-.447-.223H104.4v7.145h1.675V97.024a2.4,2.4,0,0,0,1.228.223,2.458,2.458,0,0,0,2.568-2.568,2.411,2.411,0,0,0-2.344-2.568.109.109,0,0,0-.112-.112Zm-.447,3.907a2.628,2.628,0,0,1-.893-.223V94.233a1.015,1.015,0,0,1,1.116-1c.447,0,1.116.223,1.116,1.34a1.175,1.175,0,0,1-1.34,1.34Z" transform="translate(114.582 -53.971)"/>
    <path id="Rectangle_9_1_" class="cls-1" d="M113.2,92.1h1.675v5.024H113.2Z" transform="translate(115.606 -53.96)"/>
    <path id="Path_62_1_" class="cls-1" d="M124.649,97.245h1.786L124.984,94.9c.112-.112.223-.112.223-.223a3.589,3.589,0,0,0,1.116-2.344h-1.563a1.793,1.793,0,0,1-.558,1.228,1.679,1.679,0,0,1-1.228.447V90.1H121.3v7.145h1.675V95.57a1.416,1.416,0,0,0,.67-.112Z" transform="translate(116.548 -54.192)"/>
  </g>
</svg>
