<svg xmlns="http://www.w3.org/2000/svg" viewBox="0 0 311.099 66.484">
  <defs>
    <style>
      .cls-1 {
        fill: #fff;
      }
    </style>
  </defs>
  <g id="Group_101" data-name="Group 101" transform="translate(-136 -35.684)">
    <path id="Path_1" data-name="Path 1" class="cls-1" d="M72.51,118.839l-29.92,9.481a8.839,8.839,0,0,1-5.91-.123l-29.3-10.1L.6,120.193a.77.77,0,0,0,0,1.478l35.707,12.313a10.348,10.348,0,0,0,6.4.123l36.569-11.574a.77.77,0,0,0,0-1.478Z" transform="translate(135.95 -32.385)"/>
    <path id="Path_2" data-name="Path 2" class="cls-1" d="M73.125,108.939l-30.535,9.6a8.839,8.839,0,0,1-5.91-.123L6.884,108.2.6,110.17a.77.77,0,0,0,0,1.478L36.311,123.96a10.348,10.348,0,0,0,6.4.123l36.569-11.574a.77.77,0,0,0,0-1.477Z" transform="translate(135.95 -34.675)"/>
    <path id="Path_3" data-name="Path 3" class="cls-1" d="M72.71,98.916,42.79,108.4a8.839,8.839,0,0,1-5.91-.123L7.7,98.3.8,100.393a.77.77,0,0,0,0,1.478l35.707,12.313a10.348,10.348,0,0,0,6.4.123l36.569-11.574a.77.77,0,0,0,0-1.478Z" transform="translate(135.996 -36.964)"/>
    <path id="Path_4" data-name="Path 4" class="cls-1" d="M79.582,93.146,43.26,80.587a7.469,7.469,0,0,0-5.171,0l-19.946,6.4L.9,92.284a.77.77,0,0,0,0,1.478l35.707,12.313a10.349,10.349,0,0,0,6.4.123L79.582,94.623a.77.77,0,0,0,0-1.478" transform="translate(136.019 -41.168)"/>
    <path id="Path_86_1_" class="cls-1" d="M1045.548,157.058c0,7.091-5.273,11.637-13.274,11.637h-6.91v11.274H1017V145.6h15.274C1040.093,145.42,1045.548,150.33,1045.548,157.058Zm-13.819-4.546h-6.364v8.91h6.364c2.909,0,5.091-1.455,5.091-4.546C1036.82,153.966,1034.82,152.512,1031.728,152.512Z" transform="translate(-770.281 -85.607)"/>
    <path id="Path_87_1_" class="cls-1" d="M1034.9,145.3h8.364v34.73H1034.9Z" transform="translate(-755.633 -85.85)"/>
    <path id="Path_88_1_" class="cls-1" d="M1064.874,175.611h-5.637l-1.091-2.909h-.363c-1.273,2-3.637,3.455-7.637,3.455-5.455,0-8.546-3.273-8.546-7.637,0-5.091,3.636-8,11.092-8a17.934,17.934,0,0,1,4.364.546v-.727c0-2.364-2-3.091-5.091-3.091a13.891,13.891,0,0,0-6,1.455l-2.546-5.819s3.455-2.182,10.365-2.182c7.273,0,11.456,4,11.456,9.819v15.092Zm-8-10.183a9.51,9.51,0,0,0-3.273-.546c-2.728,0-4.364,1.091-4.364,3.091a3.03,3.03,0,0,0,3.091,2.909h.364a3.986,3.986,0,0,0,4.182-3.455v-2Z" transform="translate(-750.15 -81.431)"/>
    <path id="Path_89_1_" class="cls-1" d="M1060.264,154.555V147.1h8.364v7.455h5.455v6.182h-5.455v9.273a1.736,1.736,0,0,0,1.636,2h.364a3.309,3.309,0,0,0,2-.727l2.182,5.637a11.243,11.243,0,0,1-6.728,2c-5.819,0-8.182-3.818-8.182-8.728v-9.637h-4v-6.364l4.364.364Z" transform="translate(-738.448 -84.377)"/>
    <path id="Path_90_1_" class="cls-1" d="M1079.682,162.374v17.638h-8.364V162.374H1067.5V156.01h4v-.546c0-6.364,3.273-10.364,9.819-10.364a18.472,18.472,0,0,1,6.182,1.091l-2.546,6a4.263,4.263,0,0,0-2-.364,2.952,2.952,0,0,0-2.909,2.727v1.636h6v6.364l-6.365-.182Z" transform="translate(-728.955 -86.014)"/>
    <path id="Path_91_1_" class="cls-1" d="M1091.23,176.24c-7.091,0-12.728-5.091-12.728-12.546a12.822,12.822,0,1,1,13.092,12.546Zm4.728-12.546c0-3.818-1.818-6.182-4.728-6.182s-4.728,2.546-4.728,6.182c0,3.818,1.818,6.182,4.728,6.182,2.909-.182,4.728-2.546,4.728-6.182Z" transform="translate(-719.956 -81.515)"/>
    <path id="Path_92_1_" class="cls-1" d="M1109.628,158.191h-1.273c-3.091,0-5.092,2-5.092,5.455v11.637H1094.9V151.1h5.092l1.455,3.273h.364c1.455-2.182,3.455-3.273,6.728-3.273h1.273l-.182,7.091Z" transform="translate(-706.533 -81.104)"/>
    <path id="Path_93_1_" class="cls-1" d="M1113.264,175.536H1104.9V151.352h5.091l1.455,3.273h.364a8.443,8.443,0,0,1,7.637-3.818,9.857,9.857,0,0,1,8.364,4h.364a7.948,7.948,0,0,1,7.455-4c6.182,0,9.819,4,9.819,10.546v14.183h-8.364V162.08a3.841,3.841,0,0,0-3.818-3.818,3.776,3.776,0,0,0-3.818,3.455v14h-8.183V162.08a3.883,3.883,0,0,0-4-3.818,3.841,3.841,0,0,0-3.818,3.818Z" transform="translate(-698.35 -81.356)"/>
    <circle id="Ellipse_1_1_" class="cls-1" cx="1.455" cy="1.455" r="1.455" transform="translate(286.979 35.684)"/>
    <path id="Path_57_1_" class="cls-1" d="M97.182,95.191l-3.455-4.546a1.651,1.651,0,0,0-1.273-.545H91v11.637h2.727V95.191l2.364,3.091a1.151,1.151,0,0,0,1.637.182l.182-.182,2.364-3.091v6.546H103V90.1H101.91a1.651,1.651,0,0,0-1.273.545Z" transform="translate(155.794 -54.052)"/>
    <path id="Path_58_1_" class="cls-1" d="M112.827,98.1v-8H110.1v8.728a2.887,2.887,0,0,0,2.364,3.091c.182-.182,2-1.636,2-1.636a1.906,1.906,0,0,1-1.636-2.182Z" transform="translate(171.424 -54.052)"/>
    <path id="Path_59_1_" class="cls-1" d="M120.509,92c-1.818,0-2.364.545-2.728.909,0-.182-.182-.182-.182-.364-.182-.364-.364-.545-.727-.545H115.6v8.182h2.727V95.818a1.485,1.485,0,0,1,1.455-1.636h.182c1.091,0,1.636.727,1.636,1.818v4.364h2.727V95.637A3.5,3.5,0,0,0,120.873,92Z" transform="translate(175.925 -52.497)"/>
    <path id="Path_60_1_" class="cls-1" d="M107.228,98.082V92.991a7.638,7.638,0,0,0-3.818-1.091c-2.727,0-4.909,1.455-4.909,4.364a4.167,4.167,0,0,0,3.818,4.182,3.942,3.942,0,0,0,2.546-.909,1.806,1.806,0,0,0,1.455,1.091c.182-.182,1.455-1.273,1.455-1.273A1.651,1.651,0,0,1,107.228,98.082Zm-2.546-1.273a1.592,1.592,0,0,1-1.636,1.455c-.727,0-1.818-.182-1.818-2a2.057,2.057,0,0,1,2-2.182h.364a2.628,2.628,0,0,1,1.273.364Z" transform="translate(161.931 -52.579)"/>
    <path id="Path_61_1_" class="cls-1" d="M109.309,92a4.466,4.466,0,0,0-2.727.909c0-.182-.182-.182-.182-.364a.945.945,0,0,0-.727-.364H104.4v11.637h2.727v-3.637a3.9,3.9,0,0,0,2,.364,4,4,0,0,0,4.182-4.182,3.926,3.926,0,0,0-3.818-4.182.178.178,0,0,0-.182-.182Zm-.727,6.364A4.28,4.28,0,0,1,107.127,98V95.637A1.652,1.652,0,0,1,108.946,94c.727,0,1.818.364,1.818,2.182a1.914,1.914,0,0,1-2.182,2.182Z" transform="translate(166.76 -52.497)"/>
    <path id="Rectangle_9_1_" class="cls-1" d="M113.2,92.1h2.727v8.182H113.2Z" transform="translate(173.961 -52.415)"/>
    <path id="Path_62_1_" class="cls-1" d="M126.755,101.737h2.909L127.3,97.919c.182-.182.364-.182.364-.364a5.846,5.846,0,0,0,1.818-3.818h-2.546a2.92,2.92,0,0,1-.909,2,2.734,2.734,0,0,1-2,.727V90.1H121.3v11.637h2.727V99.01a2.306,2.306,0,0,0,1.091-.182Z" transform="translate(180.589 -54.052)"/>
  </g>
</svg>
