<svg xmlns="http://www.w3.org/2000/svg" viewBox="0 0 32.855 23.589">
  <defs>
    <style>
      .cls-1 {
        fill: #fff;
      }
    </style>
  </defs>
  <path id="send" class="cls-1" d="M32.432,70.56a2.248,2.248,0,0,0-2.354-.848L1.69,76.859a2.248,2.248,0,0,0-.6,4.1l6,3.6v7.9a.782.782,0,0,0,1.263.617l5.63-4.382,4.626,2.775a2.248,2.248,0,0,0,3.061-.749l10.866-17.66a2.248,2.248,0,0,0-.108-2.494ZM19.625,88.988l-7.043-4.223,7.14-6.153a.271.271,0,0,0-.274-.459l-10.875,4.2L3.292,79.189l26.459-6.661Z" transform="translate(-0.01 -69.646)"/>
</svg>
