<svg xmlns="http://www.w3.org/2000/svg" viewBox="0 0 37.845 29.845">
  <defs>
    <style>
      .cls-1 {
        fill: #4c5c86;
      }
    </style>
  </defs>
  <g id="Group_17956" data-name="Group 17956" transform="translate(-6001 -944.523)">
    <path id="Path_1" data-name="Path 1" class="cls-1" d="M34.261,118.449l-14.126,4.476a4.173,4.173,0,0,1-2.79-.058L3.509,118.1l-3.2.988a.363.363,0,0,0,0,.7L17.17,125.6a4.886,4.886,0,0,0,3.023.058l17.266-5.465a.363.363,0,0,0,0-.7Z" transform="translate(6000.95 848.499)"/>
    <path id="Path_2" data-name="Path 2" class="cls-1" d="M34.552,108.549l-14.417,4.534a4.173,4.173,0,0,1-2.79-.058L3.276,108.2l-2.965.93a.363.363,0,0,0,0,.7l16.859,5.813a4.886,4.886,0,0,0,3.023.058l17.266-5.465a.363.363,0,0,0,0-.7Z" transform="translate(6000.95 852.644)"/>
    <path id="Path_3" data-name="Path 3" class="cls-1" d="M34.461,98.591l-14.126,4.476a4.173,4.173,0,0,1-2.79-.058L3.767,98.3l-3.255.988a.363.363,0,0,0,0,.7L17.37,105.8a4.886,4.886,0,0,0,3.023.058l17.266-5.465a.363.363,0,0,0,0-.7Z" transform="translate(6000.866 856.789)"/>
    <path id="Path_4" data-name="Path 4" class="cls-1" d="M37.759,86.273l-17.149-5.93a3.526,3.526,0,0,0-2.442,0L8.75,83.366l-8.139,2.5a.363.363,0,0,0,0,.7L17.47,92.377a4.886,4.886,0,0,0,3.023.058L37.759,86.97a.363.363,0,0,0,0-.7" transform="translate(6000.825 864.398)"/>
  </g>
</svg>
