<?xml version="1.0" encoding="utf-8"?>
<!-- Generator: Adobe Illustrator 22.1.0, SVG Export Plug-In . SVG Version: 6.00 Build 0)  -->
<svg version="1.1" id="Layer_1" xmlns="http://www.w3.org/2000/svg" xmlns:xlink="http://www.w3.org/1999/xlink" x="0px" y="0px"
	 viewBox="0 0 37.8 29.8" style="enable-background:new 0 0 37.8 29.8;" xml:space="preserve">
<style type="text/css">
	.st0{fill:#FCFCFC;}
</style>
<g id="Group_17956" transform="translate(-6001 -944.523)">
	<path id="Path_1" class="st0" d="M6035.2,966.9l-14.1,4.5c-0.9,0.3-1.9,0.3-2.8-0.1l-13.8-4.8l-3.2,1c-0.2,0.1-0.3,0.3-0.3,0.4
		c0,0.1,0.1,0.2,0.3,0.3l16.9,5.8c1,0.3,2,0.4,3,0.1l17.3-5.5c0.2-0.1,0.3-0.3,0.3-0.4c0-0.1-0.1-0.2-0.3-0.3L6035.2,966.9z"/>
	<path id="Path_2" class="st0" d="M6035.5,961.2l-14.4,4.5c-0.9,0.3-1.9,0.3-2.8-0.1l-14.1-4.8l-3,0.9c-0.2,0.1-0.3,0.3-0.3,0.4
		c0,0.1,0.1,0.2,0.3,0.3l16.9,5.8c1,0.3,2,0.4,3,0.1l17.3-5.5c0.2-0.1,0.3-0.3,0.3-0.4c0-0.1-0.1-0.2-0.3-0.3L6035.5,961.2z"/>
	<path id="Path_3" class="st0" d="M6035.3,955.4l-14.1,4.5c-0.9,0.3-1.9,0.3-2.8-0.1l-13.8-4.7l-3.3,1c-0.2,0.1-0.3,0.3-0.3,0.4
		c0,0.1,0.1,0.2,0.3,0.3l16.9,5.8c1,0.3,2,0.4,3,0.1l17.3-5.5c0.2-0.1,0.3-0.3,0.3-0.4c0-0.1-0.1-0.2-0.3-0.3L6035.3,955.4z"/>
	<path id="Path_4" class="st0" d="M6038.6,950.7l-17.1-5.9c-0.8-0.3-1.7-0.3-2.4,0l-9.4,3l-8.1,2.5c-0.2,0.1-0.3,0.3-0.3,0.4
		c0,0.1,0.1,0.2,0.3,0.3l16.9,5.8c1,0.3,2,0.4,3,0.1l17.3-5.5c0.2-0.1,0.3-0.3,0.3-0.4C6038.8,950.8,6038.7,950.7,6038.6,950.7"/>
</g>
</svg>
