<svg xmlns="http://www.w3.org/2000/svg" width="63.457" height="44.144" viewBox="0 0 63.457 44.144">
  <g id="_001-email" data-name="001-email" transform="translate(0 -10.668)">
    <path id="Path_51" data-name="Path 51" d="M70.863,13.51,47.66,30.284l-3.807,2.759a5.711,5.711,0,0,1-6.787,0l-3.807-2.759L10.027,13.537a6.859,6.859,0,0,1,5.6-2.869H65.29A6.9,6.9,0,0,1,70.863,13.51Z" transform="translate(-8.731 0)" fill="#00ef95"/>
    <g id="Group_98" data-name="Group 98" transform="translate(0 13.51)">
      <path id="Path_52" data-name="Path 52" d="M1.3,32.855,24.527,49.6,2.014,72.115A6.9,6.9,0,0,1,0,67.232V36.883A6.815,6.815,0,0,1,1.3,32.855Z" transform="translate(0 -32.827)" fill="#00ce80"/>
      <path id="Path_53" data-name="Path 53" d="M325.541,36.7V67.047a6.9,6.9,0,0,1-2.014,4.883L301.014,49.417l23.2-16.775A6.858,6.858,0,0,1,325.541,36.7Z" transform="translate(-262.085 -32.642)" fill="#00ce80"/>
    </g>
    <path id="Path_55" data-name="Path 55" d="M52.489,162.348l-3.807,2.759a5.711,5.711,0,0,1-6.787,0l-3.807-2.759L15.574,184.861a6.9,6.9,0,0,0,4.883,2.014H70.119A6.9,6.9,0,0,0,75,184.861Z" transform="translate(-13.56 -132.064)" fill="#04b16f"/>
  </g>
</svg>
