<svg xmlns="http://www.w3.org/2000/svg" width="42.419" height="14.104" viewBox="0 0 42.419 14.104">
  <path id="Path_43" data-name="Path 43" d="M96.189,293.586a3,3,0,0,0,2.994-2.815l6.8-2.347a3,3,0,0,0,5.119-.775l7.523,1.189a3,3,0,0,0,5.858-.574l5.87-3.8a3,3,0,1,0-.749-1.98c0,.045,0,.09,0,.135l-5.641,3.654a3,3,0,0,0-5.26.6l-7.515-1.188a3,3,0,0,0-5.876.854c0,.016,0,.032,0,.048l-6.661,2.3a3,3,0,1,0-2.469,4.7Zm36.418-12.15a1.046,1.046,0,1,1-1.046,1.046A1.047,1.047,0,0,1,132.608,281.436Zm-11.107,5.49a1.046,1.046,0,1,1-1.046,1.046A1.047,1.047,0,0,1,121.5,286.926Zm-13.182-1.433a1.046,1.046,0,1,1-1.046,1.046A1.047,1.047,0,0,1,108.319,285.493ZM96.189,289.54a1.046,1.046,0,1,1-1.046,1.046A1.047,1.047,0,0,1,96.189,289.54Z" transform="translate(-93.189 -279.482)" fill="#00ce80"/>
</svg>
