<svg xmlns="http://www.w3.org/2000/svg" width="46.167" height="46.167">
  <g data-name="001-linkedin">
    <g data-name="Group 59">
      <g data-name="Group 58">
        <path data-name="Path 3" d="M40.03.25H6.137A5.893 5.893 0 00.25 6.137V40.03a5.893 5.893 0 005.887 5.887H40.03a5.893 5.893 0 005.887-5.887V6.137A5.893 5.893 0 0040.03.25zm4.1 39.78a4.108 4.108 0 01-4.1 4.1H6.137a4.108 4.108 0 01-4.1-4.1V6.137a4.108 4.108 0 014.1-4.1H40.03a4.108 4.108 0 014.1 4.1z" fill="#00ce80" stroke="#00ce80" stroke-width=".5"/>
      </g>
    </g>
    <g data-name="Group 61">
      <g data-name="Group 60">
        <path data-name="Path 4" d="M36.682 20.143h0a6.009 6.009 0 00-4.758-2 7.437 7.437 0 00-3.725.885 7.719 7.719 0 00-1.475 1.119v-.778a.816.816 0 00-.815-.815h-5.937a.816.816 0 00-.815.815v18.146a.816.816 0 00.815.815h5.893a.816.816 0 00.815-.815V27.223a2.506 2.506 0 012.291-2.569l.208-.011a1.832 1.832 0 011.367.512 2.115 2.115 0 01.647 1.534v10.824a.815.815 0 00.815.815h5.556a.816.816 0 00.815-.816V25.98c0-2.583-.571-4.549-1.697-5.837zm.066 16.559h-3.925V26.689a3.753 3.753 0 00-1.156-2.719 3.444 3.444 0 00-2.577-.956l-.208.011a4.136 4.136 0 00-3.832 4.2V36.7h-4.262V20.183h4.306v2.14a.815.815 0 001.473.483 8.377 8.377 0 012.44-2.363 5.841 5.841 0 012.917-.67 4.393 4.393 0 013.529 1.437h0c.86.987 1.3 2.592 1.3 4.77z" fill="#00ce80" stroke="#00ce80" stroke-width=".5"/>
      </g>
    </g>
    <g data-name="Group 63">
      <g data-name="Group 62">
        <path data-name="Path 5" d="M14.553 18.574H8.615a.816.816 0 00-.815.815v6.791a.815.815 0 101.631 0v-5.975h4.306V36.72H9.426v-3.608a.815.815 0 00-1.631 0v4.424a.816.816 0 00.815.815h5.937a.816.816 0 00.815-.815V19.389a.816.816 0 00-.809-.815z" fill="#00ce80" stroke="#00ce80" stroke-width=".5"/>
      </g>
    </g>
    <g data-name="Group 65">
      <g data-name="Group 64">
        <path data-name="Path 6" d="M8.858 29.041a.815.815 0 10.239.577.823.823 0 00-.239-.577z" fill="#00ce80" stroke="#00ce80" stroke-width=".5"/>
      </g>
    </g>
    <g data-name="Group 67">
      <g data-name="Group 66">
        <path data-name="Path 7" d="M11.56 7.423a4.137 4.137 0 104.137 4.137 4.141 4.141 0 00-4.137-4.137zm0 6.642a2.506 2.506 0 112.506-2.506 2.509 2.509 0 01-2.506 2.511z" fill="#00ce80" stroke="#00ce80" stroke-width=".5"/>
      </g>
    </g>
    <g data-name="Group 69">
      <g data-name="Group 68">
        <path data-name="Path 8" d="M34.778 4.164h-6.646a.815.815 0 000 1.631h6.646a.815.815 0 000-1.631z" fill="#00ce80" stroke="#00ce80" stroke-width=".5"/>
      </g>
    </g>
    <g data-name="Group 71">
      <g data-name="Group 70">
        <path data-name="Path 9" d="M23.598 4.164h-.01a.815.815 0 100 1.631h.01a.815.815 0 000-1.631z" fill="#00ce80" stroke="#00ce80" stroke-width=".5"/>
      </g>
    </g>
  </g>
</svg>
