<svg xmlns="http://www.w3.org/2000/svg" width="46.167" height="46.167" viewBox="0 0 46.167 46.167">
  <g id="_001-linkedin" data-name="001-linkedin" transform="translate(0.25 0.25)">
    <g id="Group_59" data-name="Group 59">
      <g id="Group_58" data-name="Group 58">
        <path id="Path_3" data-name="Path 3" d="M39.78,0H5.887A5.893,5.893,0,0,0,0,5.887V39.78a5.893,5.893,0,0,0,5.887,5.887H39.78a5.893,5.893,0,0,0,5.887-5.887V5.887A5.893,5.893,0,0,0,39.78,0Zm4.1,39.78a4.108,4.108,0,0,1-4.1,4.1H5.887a4.108,4.108,0,0,1-4.1-4.1V5.887a4.108,4.108,0,0,1,4.1-4.1H39.78a4.108,4.108,0,0,1,4.1,4.1Z" fill="#c7e8dc" stroke="#c7e8dc" stroke-width="0.5"/>
      </g>
    </g>
    <g id="Group_61" data-name="Group 61" transform="translate(18.906 17.892)">
      <g id="Group_60" data-name="Group 60">
        <path id="Path_4" data-name="Path 4" d="M215.05,187.7h0a6.009,6.009,0,0,0-4.758-2,7.437,7.437,0,0,0-3.725.885,7.719,7.719,0,0,0-1.475,1.119v-.778a.816.816,0,0,0-.815-.815h-5.937a.816.816,0,0,0-.815.815v18.146a.816.816,0,0,0,.815.815h5.893a.816.816,0,0,0,.815-.815V194.78a2.506,2.506,0,0,1,2.291-2.569l.208-.011a1.832,1.832,0,0,1,1.367.512,2.115,2.115,0,0,1,.647,1.534V205.07a.815.815,0,0,0,.815.815h5.556a.816.816,0,0,0,.815-.816V193.537C216.747,190.954,216.176,188.988,215.05,187.7Zm.066,16.559h-3.925V194.246a3.753,3.753,0,0,0-1.156-2.719,3.444,3.444,0,0,0-2.577-.956l-.208.011a4.136,4.136,0,0,0-3.832,4.2v9.475h-4.262V187.74h4.306v2.14a.815.815,0,0,0,1.473.483A8.377,8.377,0,0,1,207.375,188a5.841,5.841,0,0,1,2.917-.67,4.393,4.393,0,0,1,3.529,1.437h0c.86.987,1.3,2.592,1.3,4.77Z" transform="translate(-197.524 -185.699)" fill="#c7e8dc" stroke="#c7e8dc" stroke-width="0.5"/>
      </g>
    </g>
    <g id="Group_63" data-name="Group 63" transform="translate(7.55 18.324)">
      <g id="Group_62" data-name="Group 62">
        <path id="Path_5" data-name="Path 5" d="M89.827,190.729H83.889a.816.816,0,0,0-.815.815v6.791a.815.815,0,1,0,1.631,0V192.36h4.306v16.515H84.7v-3.608a.815.815,0,0,0-1.631,0v4.424a.816.816,0,0,0,.815.815h5.937a.816.816,0,0,0,.815-.815V191.544A.816.816,0,0,0,89.827,190.729Z" transform="translate(-83.074 -190.729)" fill="#c7e8dc" stroke="#c7e8dc" stroke-width="0.5"/>
      </g>
    </g>
    <g id="Group_65" data-name="Group 65" transform="translate(7.215 28.552)">
      <g id="Group_64" data-name="Group 64">
        <path id="Path_6" data-name="Path 6" d="M84.462,319.239a.815.815,0,1,0,.239.577A.823.823,0,0,0,84.462,319.239Z" transform="translate(-83.069 -319)" fill="#c7e8dc" stroke="#c7e8dc" stroke-width="0.5"/>
      </g>
    </g>
    <g id="Group_67" data-name="Group 67" transform="translate(7.173 7.173)">
      <g id="Group_66" data-name="Group 66">
        <path id="Path_7" data-name="Path 7" d="M82.887,78.753a4.137,4.137,0,1,0,4.137,4.137A4.141,4.141,0,0,0,82.887,78.753Zm0,6.642a2.506,2.506,0,1,1,2.506-2.506A2.509,2.509,0,0,1,82.887,85.4Z" transform="translate(-78.75 -78.753)" fill="#c7e8dc" stroke="#c7e8dc" stroke-width="0.5"/>
      </g>
    </g>
    <g id="Group_69" data-name="Group 69" transform="translate(27.064 3.914)">
      <g id="Group_68" data-name="Group 68">
        <path id="Path_8" data-name="Path 8" d="M304.6,48h-6.646a.815.815,0,0,0,0,1.631H304.6a.815.815,0,0,0,0-1.631Z" transform="translate(-297.136 -48)" fill="#c7e8dc" stroke="#c7e8dc" stroke-width="0.5"/>
      </g>
    </g>
    <g id="Group_71" data-name="Group 71" transform="translate(22.523 3.914)">
      <g id="Group_70" data-name="Group 70">
        <path id="Path_9" data-name="Path 9" d="M252.461,48h-.01a.815.815,0,1,0,0,1.631h.01a.815.815,0,0,0,0-1.631Z" transform="translate(-251.636 -48)" fill="#c7e8dc" stroke="#c7e8dc" stroke-width="0.5"/>
      </g>
    </g>
  </g>
</svg>
