<svg id="Camada_2" data-name="Camada 2" xmlns="http://www.w3.org/2000/svg" width="142.16" height="56.083" viewBox="0 0 142.16 56.083">
  <g id="Layer_1" data-name="Layer 1">
    <path id="Path_1" data-name="Path 1" d="M311.785,38.572l-1.032-1.464,1.544.729L338.757,0l-4.1.815A3.328,3.328,0,0,0,332.37,2.27L309.339,35.121l-6.463-9.165h-5.448l9.2,13.032L294.65,56.083h3.634a3.328,3.328,0,0,0,2.273-1.454l8.519-12.18,6.656,9.431h5.441l-9.391-13.311Z" transform="translate(-196.597)" fill="#18d174"/>
    <rect id="Rectangle_1" data-name="Rectangle 1" width="2.632" height="17.295" transform="translate(23.168 31.551)" fill="#fff"/>
    <path id="Path_2" data-name="Path 2" d="M224.624,94.81v15.141l-7.8-15.141H212.98v17.3h2.369V96.81l7.88,15.3h3.764V94.81Z" transform="translate(-142.105 -63.259)" fill="#fff"/>
    <path id="Path_3" data-name="Path 3" d="M2.443,109.855V94.81H0v17.3H9.587v-2.253Z" transform="translate(0 -63.259)" fill="#fff"/>
    <path id="Path_4" data-name="Path 4" d="M128.4,111.89a8.506,8.506,0,0,1-8.532-8.463v-.775a8.532,8.532,0,1,1,17.063,0l0,.775A8.506,8.506,0,0,1,128.4,111.89Zm0-15.521a6.293,6.293,0,0,0-6.323,6.26v.822a6.323,6.323,0,0,0,12.622,0v-.822a6.293,6.293,0,0,0-6.3-6.26Z" transform="translate(-79.98 -62.799)" fill="#fff"/>
  </g>
</svg>
