<?xml version="1.0" encoding="utf-8"?>
<!-- Generator: Adobe Illustrator 22.1.0, SVG Export Plug-In . SVG Version: 6.00 Build 0)  -->
<svg version="1.1" id="Capa_1" xmlns="http://www.w3.org/2000/svg" xmlns:xlink="http://www.w3.org/1999/xlink" x="0px" y="0px"
	 viewBox="0 0 32 58" style="enable-background:new 0 0 32 58;" xml:space="preserve">
<style type="text/css">
	.st0{fill:#424A60;}
	.st1{fill:#E7ECED;}
	.st2{fill:#262B35;}
	.st3{fill:#D9EF9C;}
	.st4{fill:#434C39;}
</style>
<path class="st0" d="M28.6,58H3.4C1.5,58,0,56.5,0,54.6V3.4C0,1.5,1.5,0,3.4,0h25.2C30.5,0,32,1.5,32,3.4v51.2
	C32,56.5,30.5,58,28.6,58z"/>
<rect x="0" y="6" class="st1" width="32" height="40"/>
<circle class="st2" cx="16" cy="52" r="3"/>
<path class="st2" d="M16,4h-4c-0.6,0-1-0.4-1-1s0.4-1,1-1h4c0.6,0,1,0.4,1,1S16.5,4,16,4z"/>
<path class="st2" d="M20,4h-1c-0.6,0-1-0.4-1-1s0.4-1,1-1h1c0.6,0,1,0.4,1,1S20.5,4,20,4z"/>
<g>
	<g>
		<path class="st3" d="M12.7,19.5h-0.1c0.1,0,0.2,0.1,0.2,0.2h0.1c0-0.1,0-0.1,0.1-0.2C12.9,19.5,12.8,19.5,12.7,19.5z"/>
		<path class="st3" d="M22.7,22.6c-1.9,0-3.4,1.5-3.4,3.4c0,0.8,0.3,1.6,0.8,2.2c1.4-0.3,2.4-1.4,2.6-2.8c0-0.3,0.3-0.5,0.5-0.4
			c0.3,0,0.5,0.3,0.4,0.5c-0.2,2.1-1.9,3.7-4,3.7c-0.1,0-0.3,0-0.4,0c-1.4-0.1-2.7-0.9-3.4-2.2c-0.1-0.2,0-0.5,0.2-0.6
			c0.2-0.1,0.5,0,0.6,0.2c0.5,0.9,1.3,1.5,2.3,1.6c-0.4-0.7-0.6-1.4-0.6-2.3c0-2.4,1.9-4.3,4.3-4.3c0.4,0,0.8,0.1,1.2,0.2
			c-0.4-0.9-1.4-1.6-2.4-1.6s-1.8,0.5-2.3,1.3c-0.1,0.2-0.4,0.3-0.6,0.2c-0.2-0.1-0.3-0.4-0.2-0.6c0.6-1,1.6-1.7,2.8-1.8
			c-0.3-0.3-0.7-0.5-1.2-0.5c-0.2,0-0.3,0-0.5,0.1c-0.2,0-0.3,0-0.5-0.1c-0.6-0.5-1.3-0.8-2.1-0.8c-1.3,0-2.4,0.8-2.9,1.9
			c1.8,0.5,3,2.2,2.9,4.1c0,0.3-0.2,0.5-0.5,0.4c-0.3,0-0.5-0.2-0.4-0.5c0.1-1.5-0.9-2.8-2.4-3.2c0,0.2,0.1,0.3,0.1,0.5
			c0,1.1-0.9,1.9-1.9,1.9c-0.5,0-1-0.2-1.4-0.6l0,0c0.2,0.3,0.3,0.6,0.3,1c0,0.3-0.1,0.5-0.1,0.7c0.4-0.2,0.9-0.3,1.5-0.3
			c0.4,0,0.8,0.1,1.2,0.2c0.2,0.1,0.4,0.4,0.3,0.6c-0.1,0.2-0.4,0.4-0.6,0.3c-0.3-0.1-0.6-0.2-0.9-0.2c-1.3,0-2.4,1.1-2.4,2.4
			c0,0.2,0,0.5,0.1,0.7c0.1,0.3-0.1,0.5-0.3,0.6H9.3c-0.2,0-0.4-0.1-0.5-0.3c-0.1-0.3-0.2-0.7-0.2-1c0-0.5,0.1-0.9,0.3-1.3
			c-0.3-0.2-0.6-0.5-0.8-0.7c-0.5-0.2-0.8-0.6-1-1.1c-0.2,0.9-1,1.5-1.9,1.5c-0.3,0-0.6-0.1-0.8-0.2c0.1,1.1,1.1,1.9,2.2,1.9
			c0.1,0,0.2,0,0.3,0c0.3,0,0.5,0.1,0.5,0.4S7.3,28.2,7,28.2c-0.1,0-0.3,0-0.4,0c-0.4,0-0.8-0.1-1.2-0.3c0.1,1.1,1,1.9,2.1,1.9h7
			v-0.2c0-0.8-0.7-1.5-1.5-1.5c-0.2,0-0.5,0.1-0.7,0.2s-0.5,0-0.6-0.2s0-0.5,0.2-0.6c0.3-0.2,0.7-0.3,1.1-0.3c1.3,0,2.4,1.1,2.4,2.4
			V34l4.6-2.8h-0.5c-0.3,0-0.5-0.2-0.5-0.5s0.2-0.5,0.5-0.5h1.9c0.8,0,1.4-0.4,1.8-1c0.1-0.1,0.2-0.2,0.3-0.2
			c1.5-0.4,2.6-1.7,2.6-3.3C26.1,24.1,24.6,22.6,22.7,22.6z"/>
	</g>
	<path class="st4" d="M25.9,22.2c-0.1-0.1-0.1-0.1-0.2-0.2c-0.3-1.5-1.4-2.6-2.8-2.9c-0.4-0.9-1.3-1.6-2.4-1.6c-0.2,0-0.3,0-0.5,0
		c-0.7-0.6-1.6-0.9-2.5-0.9c-0.7,0-1.4,0.2-2,0.5c-0.3-0.2-0.7-0.3-1-0.4l-0.1,1c0,0.8-0.6,1.4-1.4,1.4l0,0l0,0
		c-0.2,0-0.5,0.1-0.5,0.4c-0.1,0.2,0,0.5,0.2,0.6c0.4,0.3,0.7,0.7,0.7,1.2c0,0.8-0.6,1.4-1.4,1.4c-0.4,0-0.8-0.2-1-0.4
		c-0.1-0.1-0.2-0.2-0.4-0.2c-0.1,0-0.3,0.1-0.4,0.2c-0.2,0.2-0.2,0.4-0.1,0.6c0.1,0.2,0.2,0.5,0.2,0.7c0,0.8-0.6,1.4-1.4,1.4
		c-0.6,0-1.1-0.3-1.3-0.9C7.5,24.1,7.3,24,7,24c-0.2,0-0.4,0.2-0.5,0.4c-0.1,0.6-0.6,1.1-1.3,1.1c0,0-0.5,0.1-1.4-0.3
		c0,0.1,0,0.1,0,0.2c0.1,0.7,0.4,1.4,0.9,1.8c0,0.1,0,0.3,0,0.4c0,1.7,1.4,3.1,3.1,3.1h7v4.1c0,0.2,0.1,0.3,0.2,0.4
		c0.1,0,0.2,0.1,0.2,0.1c0.1,0,0.2,0,0.2-0.1l6.6-4c1,0,1.8-0.5,2.4-1.3c1.8-0.6,3.1-2.2,3.1-4.2C27.7,24.2,27,22.9,25.9,22.2z
		 M24.2,29c-0.1,0-0.2,0.1-0.3,0.2c-0.4,0.6-1.1,1-1.8,1h-2.2c-0.3,0-0.5,0.2-0.5,0.5s0.2,0.5,0.5,0.5h0.5L15.8,34v-4.4
		c0-1.3-1.1-2.4-2.4-2.4c-0.4,0-0.8,0.1-1.1,0.3c-0.2,0.1-0.3,0.4-0.2,0.6s0.4,0.3,0.6,0.2c0.2-0.1,0.4-0.2,0.7-0.2
		c0.8,0,1.5,0.7,1.5,1.5v0.2h-7c-1.1,0-2-0.9-2.1-1.9c0.4,0.2,0.8,0.3,1.2,0.3c0.1,0,0.3,0,0.4,0c0.3,0,0.4-0.3,0.4-0.5
		c0-0.3-0.3-0.4-0.5-0.4c-0.1,0-0.2,0-0.3,0c-0.6,0-1.2-0.3-1.6-0.7c0.7-0.1,1.4-0.4,1.8-1c0.4,0.4,1.1,0.7,1.7,0.7
		c0.1,0,0.3,0,0.4,0c-0.1,0.3-0.1,0.6-0.1,0.9s0.1,0.7,0.2,1c0.1,0.2,0.3,0.3,0.5,0.3H10c0.3-0.1,0.4-0.3,0.3-0.6
		c-0.1-0.2-0.1-0.5-0.1-0.7c0-1.3,1.1-2.4,2.4-2.4c0.3,0,0.6,0.1,0.9,0.2c0.2,0.1,0.5,0,0.6-0.3c0.1-0.2,0-0.5-0.3-0.6
		s-0.5-0.2-0.8-0.2c0.8-0.4,1.4-1.2,1.4-2.2c0-0.4-0.1-0.7-0.2-1c1.5,0.3,2.6,1.6,2.4,3.2c0,0.3,0.2,0.5,0.4,0.5
		c0.3,0,0.5-0.2,0.5-0.4c0.1-1.9-1.1-3.6-2.8-4.1c0.3-0.3,0.5-0.7,0.6-1.1c0.6-0.5,1.3-0.9,2.2-0.9c0.8,0,1.5,0.3,2.1,0.8
		c0.1,0.1,0.3,0.2,0.5,0.1c0.2,0,0.3-0.1,0.5-0.1c0.5,0,0.9,0.2,1.2,0.5C20.7,19.3,19.6,20,19,21c-0.1,0.2-0.1,0.5,0.2,0.6
		c0.2,0.1,0.5,0.1,0.6-0.2c0.5-0.8,1.4-1.3,2.3-1.3c1.1,0,2,0.6,2.4,1.6c-0.4-0.1-0.8-0.2-1.2-0.2c-2.4,0-4.3,1.9-4.3,4.3
		c0,0.8,0.2,1.6,0.6,2.3c-1-0.2-1.8-0.8-2.3-1.6c-0.1-0.2-0.4-0.3-0.6-0.2c-0.2,0.1-0.3,0.4-0.2,0.6c0.7,1.3,1.9,2.1,3.4,2.2
		c0.1,0,0.3,0,0.4,0c2.1-0.1,3.8-1.7,4-3.7c0-0.3-0.2-0.5-0.4-0.5c-0.3,0-0.5,0.2-0.5,0.4c-0.1,1.4-1.2,2.5-2.6,2.8
		c-0.5-0.6-0.8-1.4-0.8-2.2c0-1.9,1.5-3.4,3.4-3.4s3.4,1.5,3.4,3.4C26.8,27.3,25.7,28.6,24.2,29z"/>
</g>
</svg>
